<?xml version="1.0" encoding="UTF-8"?>
<!DOCTYPE svg PUBLIC "-//W3C//DTD SVG 1.1//EN" "http://www.w3.org/Graphics/SVG/1.1/DTD/svg11.dtd">
<!-- Creator: CorelDRAW 2021.5 -->
<svg xmlns="http://www.w3.org/2000/svg" xml:space="preserve" width="13.286mm" height="5.131mm" version="1.1" style="shape-rendering:geometricPrecision; text-rendering:geometricPrecision; image-rendering:optimizeQuality; fill-rule:evenodd; clip-rule:evenodd"
viewBox="0 0 140.62 54.31"
 xmlns:xlink="http://www.w3.org/1999/xlink"
 xmlns:xodm="http://www.corel.com/coreldraw/odm/2003">
 <defs>
  <style type="text/css">
   <![CDATA[
    .fil1 {fill:white}
    .fil0 {fill:white;fill-rule:nonzero}
   ]]>
  </style>
 </defs>
 <g id="Layer_x0020_1">
  <metadata id="CorelCorpID_0Corel-Layer"/>
  <g id="_2526619763776">
   <path class="fil0" d="M42.95 12.22l-1.26 -4.71c0.01,1.04 0.01,2 0.01,2.89l0.01 2.22 -2.24 -0.06 -0.09 -7.93c-0.01,-0.66 -0.02,-1.32 -0.02,-1.97 0,-0.79 0.01,-1.59 0.03,-2.38 0.35,-0.04 0.7,-0.06 1.06,-0.06 0.4,0 0.8,0.02 1.21,0.07l2.12 6.79 1.6 -6.83 2.23 0 0.18 9.55c0.05,0.92 0.09,1.88 0.13,2.85l-2.37 0.03c-0.02,-0.81 -0.04,-2.18 -0.06,-4.11l-0.77 3.66 -1.77 -0.02zm8.88 -1.51c-0.08,0.64 -0.17,1.3 -0.26,1.98l-2.28 -0.02c0.52,-4.21 1.16,-8.39 1.92,-12.53l2.9 0.02c0.52,4.16 1.14,8.35 1.86,12.55l-2.37 0c-0.13,-0.69 -0.25,-1.36 -0.36,-2l-1.43 0zm1.21 -1.56c-0.03,-0.21 -0.05,-0.42 -0.08,-0.63 -0.15,-1.31 -0.27,-2.73 -0.36,-4.28 -0.2,1.52 -0.38,2.93 -0.51,4.22 -0.03,0.22 -0.05,0.45 -0.08,0.68l1.03 0zm11.38 3.4l-2.75 0.05 -1.89 -4.39 0.03 4.44 -2.36 -0.02 -0.1 -12.31 2.46 0.05 -0.05 4.38 2 -4.5 2.6 -0.07 -2.73 5.71 2.79 6.66zm1.37 -12.28l1.93 0 2.61 -0.02 -0.01 2.17 -2.59 -0.02 0 0.36c0,0.71 0,1.63 0.01,2.76l2.1 -0.04 0 2.1 -2.08 0.03 0.01 3.18 2.47 -0.04 0 1.89 -4.44 0 -0.01 -12.37zm13.6 0.73l0.97 4.19 0.55 -4.85 2.06 0 -1.02 12.33c-0.34,0.04 -0.75,0.06 -1.22,0.06 -0.43,0 -0.91,-0.02 -1.44,-0.05l-0.62 -5.6 -0.5 5.67 -2.8 0.02 -0.87 -12.61 2.19 0.04 0.46 5.61 0.71 -4.82 1.54 0zm7.55 11.73l0 0 0 0 -2.29 -0.01 -0.05 -0.88 -0.26 -11.73 2.36 0.07 0.24 12.55zm6.84 -12.67l-0.04 2.35 -1.48 0.01c0.01,1.52 0.01,3.05 0.02,4.61 0.01,1.56 0.01,2.89 0.02,3.99l0 1.65 -2.4 0 0 -0.42c0,-0.28 0,-0.62 0,-1.02 0,-0.4 0,-0.81 -0,-1.21 -0,-0.41 -0.01,-0.74 -0.01,-1.02l-0.13 -6.5 -1.43 -0.01c0,-0.1 -0.01,-0.91 -0.03,-2.41 0.11,0 1.93,-0.01 5.47,-0.02zm7.48 12.68l-2.26 -0.06 0 -0.42c0,-0.28 0,-0.62 0,-1.02 0,-0.4 -0.01,-1.36 -0.02,-2.87l-1.33 0.02 0.09 4.26 -2.35 0 -0.25 -12.51 2.3 0 0.04 0.88 0.12 5.28 1.34 -0.03c-0.04,-2.07 -0.08,-4.15 -0.13,-6.23 0.38,-0.04 0.76,-0.06 1.15,-0.06 0.42,0 0.83,0.02 1.24,0.07 0.01,1.5 0.01,3.22 0.02,5.17 0.01,1.96 0.02,3.69 0.02,5.21l0.01 2.28z"/>
   <g>
    <path class="fil1" d="M45.81 29.95c-0.04,0.03 -0.1,0.06 -0.13,0.07l-0.27 0.12c-1.11,0.42 -5.94,0.7 -6.86,0.43l-0.3 -8.13c1.05,-0.29 6.8,-0.7 7.98,0.34 1.59,-0.41 3.39,1.76 3.07,3.83 -0.22,1.39 -1.91,3.51 -3.49,3.33zm-14.19 20.94l7.18 0.39c0.9,-3.36 -1.55,-12.67 0.49,-13.33 0.01,-0 0.56,-0.12 0.57,-0.12l3.74 -0.33c0.22,0.52 0.54,1.01 0.84,1.66 0.99,2.12 4.9,11.7 5.54,12.09 0.81,0.5 6.09,-1.3 6.52,-1.37 -0.09,-1.1 -2.54,-5.83 -3.22,-7.22 -0.68,-1.39 -2.97,-5.75 -3.11,-7.18l3.14 -2.37c3.64,-2.96 3.6,-8.63 1.46,-12.09 -1.41,-2.28 -3.73,-3.45 -6.61,-4.34 -1.26,-0.39 -3.34,-0.61 -4.84,-0.6 -1.85,0.01 -3.72,0.28 -5.42,0.22 -0.92,-1.32 -2.37,-0.77 -4.12,-0.49 -3.01,0.48 -2.57,-0.52 -2.54,3.07 0.05,7.02 0.85,20.78 0.41,26.82 -0.09,1.28 -0.28,3.85 -0.05,5.19z"/>
    <path class="fil1" d="M10.58 17.57c-0.03,0.13 -0.05,0.36 -0.06,0.65l-9.66 0.03c-0.28,0.97 -0.52,2.53 -0.62,3.43l-0.24 2.97c0,0.21 0,0.29 0.03,0.49 0.05,0.35 0.03,0.22 0.12,0.41 0.56,0.37 5.95,0.02 7.1,-0.04l3.34 -0.13c0.13,4.69 0.35,10.04 0.35,11.86l0.03 11.88c0.97,0.33 2.53,0.61 3.43,0.73l2.97 0.28c0.21,-0 0.29,-0 0.49,-0.03 0.35,-0.06 0.22,-0.03 0.41,-0.14 0.37,-0.65 0.02,-6.96 -0.04,-8.32l-0.43 -12.71c0.02,-1.3 0.07,-2.55 0.03,-3.85l0.26 -0.01c1.22,0.02 2.4,0.08 3.62,0.01 1.14,-0.06 2.23,-0.32 3.31,-0.38 1.08,-0.05 2.59,0.09 3.58,-0.1 0.02,-0.94 -0.55,-5.97 -0.8,-6.77 -0.87,-0.2 -5.93,-0.03 -10.36,0.15 -0.01,-0.5 -0.03,-0.97 -0.1,-1.37 -0.94,-0.02 -5.97,0.64 -6.77,0.94z"/>
    <path class="fil1" d="M98.16 30.01c0.02,0.04 0.07,0.09 0.09,0.11l0.19 0.22c1.26,1.21 5.86,3.62 8.06,5.36l2.24 3.24c2.52,3.95 0.69,9.32 -2.43,11.93 -2.06,1.72 -4.63,2.1 -7.64,2.03 -1.32,-0.03 -3.37,-0.47 -4.78,-0.95 -1.42,-0.48 -2.79,-1.13 -4.13,-1.61l1.9 -5.72c1.68,0.83 5.84,2.41 7.1,1.88 1.38,0.89 3.77,-0.6 4.12,-2.66 0.19,-1.13 -0.4,-3.01 -1.45,-3.86 -4.7,-2.52 -5.36,-3.11 -9.45,-6.58l-1.97 -3.41c-2.2,-4.14 0.06,-9.35 3.38,-11.7 2.19,-1.55 4.78,-1.72 7.78,-1.42 1.31,0.13 3.32,0.74 4.69,1.33 1.38,0.59 2.69,1.35 3.99,1.94l-2.35 5.55c-1.61,-0.96 -5.63,-2.87 -6.93,-2.44 -1.3,-1 -3.81,0.3 -4.32,2.33 -0.34,1.37 0.39,3.97 1.92,4.43z"/>
    <path class="fil1" d="M68.23 31.23c-0.02,-0.36 -0.05,-0.69 -0.07,-0.99l-0.01 -8.34c0.01,-0.29 0.03,-0.93 0.04,-1.68l-0.01 -1.56c-0.03,-1.07 -0.12,-2.02 -0.34,-2.21 -0.23,-0.06 -0.07,-0.05 -0.5,-0.07 -0.25,-0.01 -0.35,-0.01 -0.6,0l-3.63 0.33c-1.1,0.12 -3.01,0.38 -4.18,0.64l0.47 7.79c0.18,3.04 -0.14,6.14 0.09,9.07 0.07,3.25 0.58,5.31 1.19,8.54l1.24 2.96 0.82 1.39 0 0 1.15 1.53 1.49 1.98c3.72,4.58 10.86,4.53 15.21,1.84 2.87,-1.77 4.34,-4.69 5.46,-8.32 0.49,-1.58 0.77,-4.21 0.76,-6.09 -0.03,-4.34 -0.61,-8.62 -0.56,-13.08l0.1 -7.8c-1,-0.23 -2.62,-0.42 -3.55,-0.51l-3.08 -0.21c-0.21,-0 -0.3,-0 -0.51,0.02 -0.36,0.03 -0.23,0.02 -0.42,0.09 -0.4,0.42 -0.1,4.57 -0.05,5.46l0.02 0.64 0.46 11.37c0.46,0.25 0.83,0.53 1.02,1.09 0.05,0.16 0.14,0.19 0.29,0.27 0.46,0.25 0.64,0.47 0.85,0.95 0.14,0.3 0.29,0.73 0.36,1.07 0.03,0.14 0.09,0.4 0.16,0.51 0.29,0.43 0.24,1.07 -0.23,1.37 -0.08,0.04 -0.16,0.07 -0.23,0.09 0.13,0.27 0.17,0.61 0.18,1.09 0,0.21 -0.01,0.55 0.12,0.73 0.28,0.4 0.27,0.68 0.23,1.16 -0.06,0.56 -0,0.67 0.4,1.06 0.57,0.56 0.58,0.79 0.72,1.57l0.2 1.06 -0.3 0.65c-0.3,0.67 -0.92,1.62 -1.73,1.74 -0.44,0.84 -1.63,0.51 -2.29,0.17 -0.04,-0.02 -0.15,-0.07 -0.23,-0.1 0.23,0.36 0.03,0.71 -0.17,1.1 -0.1,0.21 -0.25,0.6 -0.28,0.83 -0.07,0.65 -0.59,1.53 -1.33,1.06 -0.21,-0.14 -0.43,-0.5 -0.55,-0.72 -0.01,-0.01 -0.02,-0.03 -0.03,-0.06 -0.06,0.15 -0.11,0.34 -0.14,0.41 -0.15,0.51 -0.38,1.38 -1.04,1.38 -0.66,0 -0.88,-0.71 -1.08,-1.22 -0.1,-0.27 -0.17,-0.49 -0.41,-0.66 -0.02,-0.01 -0.05,-0.03 -0.07,-0.05 -0.19,0.26 -0.41,0.7 -0.44,0.9 -0.09,0.46 -0.19,0.78 -0.66,0.96 -0.5,0.17 -0.75,0.01 -1.07,-0.35 -0.23,-0.26 -0.45,-0.7 -0.55,-1.03 -0.01,-0.03 -0.03,-0.09 -0.05,-0.15 -0.42,0.62 -1.63,1.71 -2.37,0.97 -0.42,-0.41 -0.46,-2.91 0.14,-3.42 -0.29,-0.12 -0.62,-0.19 -0.88,-0.19 -0,0 -0.01,0 -0.01,0 -0.23,0.5 -0.72,0.73 -1.25,0.83 -0.71,0.13 -1.08,-0.18 -1.42,-0.77 -0.07,-0.13 -0.24,-0.35 -0.35,-0.43 -0.44,-0.31 -0.96,-1.07 -1.05,-1.6 -0.08,-0.49 0.06,-0.71 0.41,-1.04 0.14,-0.13 0.31,-0.36 0.39,-0.53 0.16,-0.31 0.49,-0.67 0.77,-0.88 0.06,-0.04 0.2,-0.15 0.28,-0.23 -0.01,-0.01 -0.01,-0.02 -0.01,-0.03 -0.28,-0.54 -0.39,-1.22 -0.06,-1.75 0.01,-0.02 0.03,-0.06 0.05,-0.09 -0.22,-0.59 -0.06,-0.99 0.36,-1.38 -0.06,-0.02 -0.13,-0.05 -0.2,-0.09 -0.72,-0.47 -0.23,-1.94 0,-2.56 0.28,-0.77 0.77,-1.79 1.45,-2.28 0.09,-0.06 0.26,-0.23 0.3,-0.32 0.17,-0.36 0.49,-0.62 0.86,-0.77l-0.01 -3.11z"/>
    <path class="fil1" d="M122.59 17.57c-0.03,0.13 -0.05,0.36 -0.06,0.65l-9.66 0.03c-0.28,0.97 -0.52,2.53 -0.62,3.43l-0.24 2.97c0,0.21 0,0.29 0.03,0.49 0.05,0.35 0.03,0.22 0.12,0.41 0.56,0.37 5.95,0.02 7.1,-0.04l3.35 -0.13c0.13,4.69 0.35,10.04 0.35,11.86l0.03 11.88c0.97,0.33 2.53,0.61 3.43,0.73l2.97 0.28c0.21,-0 0.29,-0 0.49,-0.03 0.35,-0.06 0.22,-0.03 0.41,-0.14 0.37,-0.65 0.02,-6.96 -0.04,-8.32l-0.43 -12.71c0.02,-1.3 0.07,-2.55 0.03,-3.85l0.26 -0.01c1.22,0.02 2.4,0.08 3.63,0.01 1.14,-0.06 2.23,-0.32 3.31,-0.38 1.08,-0.05 2.59,0.09 3.58,-0.1 0.02,-0.94 -0.55,-5.97 -0.8,-6.77 -0.87,-0.2 -5.93,-0.03 -10.36,0.15 -0.01,-0.5 -0.03,-0.97 -0.1,-1.37 -0.94,-0.02 -5.97,0.64 -6.77,0.94z"/>
    <g>
     <path class="fil0" d="M77.54 33.85c0.3,0.06 0.63,0.19 1,0.39 0.91,0.47 1.08,0.62 1.21,1.03 0.09,0.27 0.2,0.38 0.53,0.56 0.34,0.19 0.46,0.31 0.63,0.72 0.12,0.27 0.27,0.71 0.32,0.96 0.05,0.26 0.16,0.57 0.23,0.68 0.16,0.24 0.12,0.55 -0.07,0.67 -0.11,0.06 -0.26,0.03 -0.57,-0.12 -0.43,-0.21 -1.29,-0.3 -1.24,-0.12 0.02,0.04 0.29,0.21 0.61,0.37 0.77,0.38 0.89,0.57 0.9,1.49 0.02,0.6 0.05,0.79 0.21,1.01 0.17,0.24 0.19,0.34 0.14,0.82 -0.08,0.7 0.02,0.95 0.54,1.47 0.4,0.4 0.42,0.43 0.58,1.3l0.17 0.9 -0.24 0.5c-0.4,0.88 -0.97,1.46 -1.44,1.46 -0.09,0 -0.21,0.1 -0.26,0.22 -0.18,0.41 -0.84,0.41 -1.64,-0.01 -0.32,-0.16 -0.53,-0.21 -0.67,-0.17 -0.11,0.03 -0.36,0.08 -0.54,0.1 -0.18,0.01 -0.43,0.08 -0.53,0.16 -0.25,0.16 -0.62,0.74 -0.55,0.83 0.03,0.03 0.32,-0.08 0.62,-0.25 0.54,-0.29 0.57,-0.3 0.72,-0.15 0.14,0.14 0.14,0.18 -0.12,0.7 -0.15,0.31 -0.3,0.75 -0.32,1 -0.06,0.53 -0.32,0.85 -0.56,0.7 -0.08,-0.05 -0.25,-0.29 -0.38,-0.53 -0.17,-0.32 -0.29,-0.44 -0.45,-0.46 -0.27,-0.04 -0.43,0.19 -0.64,0.91 -0.2,0.72 -0.37,1.02 -0.56,1.02 -0.23,0 -0.33,-0.16 -0.61,-0.9 -0.2,-0.51 -0.32,-0.69 -0.59,-0.88 -0.18,-0.13 -0.39,-0.24 -0.43,-0.25 -0.2,0 -0.77,0.92 -0.87,1.4 -0.08,0.43 -0.13,0.5 -0.34,0.58 -0.23,0.08 -0.28,0.05 -0.53,-0.22 -0.16,-0.18 -0.35,-0.54 -0.44,-0.84 -0.28,-0.92 -0.47,-0.97 -0.93,-0.29 -0.49,0.74 -1.32,1.2 -1.61,0.91 -0.25,-0.24 -0.17,-2.57 0.08,-2.67 0.06,-0.02 0.27,0.09 0.47,0.24 0.19,0.16 0.39,0.26 0.44,0.23 0.14,-0.09 -0.07,-0.57 -0.42,-0.94 -0.34,-0.36 -1.04,-0.62 -1.66,-0.62 -0.31,0 -0.36,0.04 -0.46,0.27 -0.12,0.3 -0.41,0.49 -0.9,0.57 -0.41,0.08 -0.61,-0.03 -0.9,-0.52 -0.12,-0.22 -0.35,-0.48 -0.49,-0.58 -0.36,-0.26 -0.79,-0.91 -0.85,-1.28 -0.04,-0.28 -0.01,-0.35 0.25,-0.59 0.18,-0.16 0.4,-0.46 0.5,-0.67 0.11,-0.2 0.38,-0.52 0.62,-0.71 0.51,-0.39 0.58,-0.54 0.4,-0.88 -0.25,-0.48 -0.27,-0.95 -0.07,-1.27 0.11,-0.2 0.15,-0.35 0.1,-0.47 -0.18,-0.42 -0.1,-0.65 0.34,-1.02 0.42,-0.36 1.09,-1.41 0.89,-1.41 -0.23,0 -0.76,0.29 -0.94,0.51 -0.16,0.19 -0.22,0.22 -0.35,0.14 -0.26,-0.17 -0.17,-0.95 0.2,-1.96 0.38,-1.01 0.82,-1.72 1.27,-2.04 0.18,-0.12 0.39,-0.35 0.46,-0.51 0.19,-0.41 0.76,-0.68 1.27,-0.62 0.39,0.04 0.42,0.03 0.8,-0.38 0.35,-0.37 0.45,-0.42 0.88,-0.48 0.26,-0.03 0.84,-0.17 1.27,-0.32 0.43,-0.14 0.78,-0.22 1.06,-0.25 0.25,-0.03 0.49,-0.05 0.73,-0.05l0.11 0.1c0,0 0.01,0.01 0.01,0.01 0.02,0.03 0.07,0.08 0.1,0.12 -0.04,0.09 -0.11,0.22 -0.16,0.3 -0.09,0.16 -0.19,0.33 -0.29,0.48l-0 0c-0.13,0.2 -0.39,0.61 -0.44,0.84 -0.03,0.09 -0.12,0.24 -0.17,0.33 -0.1,0.18 -0.22,0.36 -0.34,0.53 -0.17,0.25 -0.79,1.13 -0.25,1.33 0.2,0.07 0.86,-0.17 1.04,-0.23 0.12,-0.04 0.8,-0.27 0.95,-0.23 0,0.02 -0.01,0.05 -0.01,0.06 -0.05,0.19 -0.09,0.4 -0.13,0.59 -0.04,0.19 -0.12,0.47 -0.21,0.64 -0.15,0.3 -0.59,1.59 -0.59,1.89 0,0.17 0.09,0.33 0.28,0.3 0.13,-0.02 0.27,-0.15 0.36,-0.24 0.17,-0.17 0.32,-0.35 0.47,-0.54 0.22,-0.28 0.44,-0.57 0.64,-0.86 0.24,-0.34 0.52,-0.74 0.71,-1.1l0 -0c0.12,-0.25 0.32,-0.55 0.48,-0.77 0.19,-0.25 0.38,-0.51 0.56,-0.77 0.13,-0.2 0.28,-0.39 0.41,-0.59 0.15,-0.21 0.36,-0.57 0.13,-0.8 -0.21,-0.21 -0.63,-0.1 -0.88,-0.02 -0.1,0.03 -0.56,0.18 -0.68,0.14 0.01,-0.09 0.15,-0.3 0.19,-0.36 0.11,-0.16 0.44,-0.59 0.63,-0.64l0.15 -0.05c0.21,0.05 0.41,0.1 0.62,0.14l0 0zm-4.44 8.66c-0.12,0.13 -0.31,0.52 -0.4,0.87 -0.11,0.35 -0.34,0.93 -0.53,1.31 -0.2,0.39 -0.39,0.9 -0.44,1.21 -0.04,0.29 -0.12,0.64 -0.17,0.77 -0.18,0.47 -0.11,0.63 0.41,1.05 0.7,0.55 1.01,0.43 1.32,-0.48 0.09,-0.27 0.2,-0.5 0.25,-0.51 0.05,-0.02 0.17,0.1 0.26,0.24 0.25,0.38 0.69,0.71 1.04,0.77 0.25,0.04 0.34,0 0.54,-0.19 0.19,-0.19 0.22,-0.28 0.18,-0.51 -0.03,-0.16 -0.07,-0.6 -0.08,-0.99 -0.01,-0.64 -0.04,-0.77 -0.3,-1.2 -0.16,-0.27 -0.46,-0.87 -0.68,-1.33 -0.22,-0.46 -0.48,-0.93 -0.59,-1.04 -0.24,-0.26 -0.55,-0.25 -0.81,0.04zm-3.03 -2.83c-0.17,0.08 -0.5,0.2 -0.73,0.27 -0.3,0.09 -0.61,0.29 -0.97,0.63 -0.31,0.28 -0.73,0.57 -0.96,0.66 -0.53,0.2 -0.6,0.41 -0.55,1.74 0.02,0.78 0.08,1.2 0.25,1.81 0.13,0.43 0.29,0.85 0.36,0.92 0.15,0.15 0.44,0.16 1.45,0.03 0.99,-0.12 1.81,-0.39 2.12,-0.69 0.28,-0.27 0.31,-0.45 0.15,-0.9 -0.11,-0.29 -0.11,-0.3 0.28,-0.64l0.39 -0.34 0.03 -0.87c0.06,-1.64 0.1,-1.48 -0.43,-2.03 -0.45,-0.45 -0.85,-0.75 -1.03,-0.74 -0.03,0.01 -0.21,0.07 -0.38,0.14zm6.31 0.02c-0.21,0.14 -0.54,0.42 -0.71,0.62 -0.27,0.31 -0.32,0.42 -0.28,0.64 0.04,0.22 0.01,0.3 -0.22,0.5 -0.33,0.29 -0.34,0.51 -0.05,1.09 0.12,0.24 0.3,0.65 0.4,0.93 0.1,0.27 0.39,0.76 0.66,1.1 0.4,0.52 0.54,0.63 0.81,0.67 0.18,0.03 0.52,0.12 0.75,0.19 0.6,0.19 1.17,0.12 1.94,-0.27 0.77,-0.39 0.97,-0.62 0.83,-0.98 -0.07,-0.19 -0.05,-0.35 0.09,-0.77 0.18,-0.52 0.18,-0.52 0.01,-0.92 -0.1,-0.22 -0.26,-0.5 -0.35,-0.64 -0.09,-0.13 -0.24,-0.48 -0.32,-0.77 -0.09,-0.29 -0.23,-0.62 -0.33,-0.73 -0.33,-0.37 -1.92,-0.9 -2.7,-0.91 -0.07,0 -0.31,0.12 -0.53,0.25z"/>
     <path class="fil0" d="M74.08 33.22c0.09,0.09 0.16,0.19 0.16,0.23 0,0.04 -0.29,0.59 -0.49,0.88 -0.19,0.3 -0.39,0.65 -0.42,0.79 -0.04,0.14 -0.27,0.55 -0.52,0.91 -0.45,0.67 -0.55,1 -0.33,1.08 0.06,0.03 0.48,-0.08 0.93,-0.23 0.94,-0.33 1.23,-0.32 1.15,0.03 -0.03,0.12 -0.09,0.39 -0.13,0.59 -0.04,0.21 -0.14,0.51 -0.22,0.68 -0.18,0.35 -0.57,1.61 -0.57,1.82 0,0.4 0.48,-0.07 1.46,-1.44 0.29,-0.4 0.6,-0.89 0.7,-1.08 0.1,-0.19 0.32,-0.55 0.5,-0.79 0.18,-0.24 0.43,-0.59 0.55,-0.76 0.12,-0.18 0.31,-0.44 0.41,-0.59 0.41,-0.57 0.16,-0.82 -0.57,-0.57 -0.9,0.31 -1.12,0.16 -0.68,-0.46 0.16,-0.22 0.48,-0.63 0.71,-0.7 -0.88,-0.18 -1.75,-0.35 -2.65,-0.39 0.01,0 0.01,0.01 0.01,0.01z"/>
    </g>
   </g>
  </g>
 </g>
</svg>
