<?xml version="1.0" encoding="UTF-8"?>
<!DOCTYPE svg PUBLIC "-//W3C//DTD SVG 1.1//EN" "http://www.w3.org/Graphics/SVG/1.1/DTD/svg11.dtd">
<!-- Creator: CorelDRAW 2021.5 -->
<svg xmlns="http://www.w3.org/2000/svg" xml:space="preserve" width="14.8943mm" height="6.3449mm" version="1.1" style="shape-rendering:geometricPrecision; text-rendering:geometricPrecision; image-rendering:optimizeQuality; fill-rule:evenodd; clip-rule:evenodd"
viewBox="0 0 244.46 104.14"
 xmlns:xlink="http://www.w3.org/1999/xlink"
 xmlns:xodm="http://www.corel.com/coreldraw/odm/2003">
 <defs>
  <style type="text/css">
   <![CDATA[
    .fil0 {fill:white}
   ]]>
  </style>
   <clipPath id="id0">
    <rect width="244.46" height="104.14"/>
   </clipPath>
 </defs>
 <g id="Layer_x0020_1">
  <metadata id="CorelCorpID_0Corel-Layer"/>
  <g style="clip-path:url(#id0)">
   <image x="-0" y="0" width="244.46" height="104.14" xlink:href="l2_Images\l2_ImgID1.png"/>
  </g>
  <g id="_2525905207104">
   <path class="fil0" d="M203.39 64.54l11.12 -10.88c2.06,-2.06 3.29,-3.36 5.57,-5.18 2.15,-1.72 3.55,-3.95 5.79,-5.45 0.92,3.97 3.52,7.47 4.4,11.25 -1.82,0.15 -7.37,3 -9.61,4.08 -4.81,2.33 -12.11,6.19 -17.28,6.19zm41.07 -38.16l0 8.5c-0.21,11.28 -2.21,17.21 -17.39,23.51 -3.1,1.29 -18.36,8.58 -20.37,8.96 -1.94,0.38 -6.91,0.12 -9.17,0.12 -0.71,-3.03 -3.12,-8.01 -3.37,-9.83 -0.55,-3.93 0.01,-9.06 0.37,-12.24 0.95,-8.42 -0.63,-17.01 2.07,-23.84 1.58,-3.98 10.09,-8.91 14.13,-11.78 5.34,-3.79 11.02,-8.8 18.09,-8.8 7.8,0 15.65,22.31 15.65,24.93l0 0.46zm-44.98 37.67l-0.35 -0.63c-3.07,-6.49 -2.05,-9.96 -2.1,-18.45 -0.02,-2.98 0.37,-4 0.5,-6.35 0.12,-2.21 -0.12,-4.64 -0,-6.85 0.13,-2.34 0.49,-3.38 0.49,-6.35 1.58,1.81 8.31,21.73 8.31,22 0,1.07 -6.16,13.7 -6.85,16.62zm27.38 -22.49l3.33 -3.03c0.1,4.43 0.74,9.24 1.07,13.3 -1.36,-1.56 -3.61,-8.49 -4.4,-10.27zm-25.91 22.98c0.57,-2.47 2.48,-6.16 3.56,-8.67 0.66,-1.54 1.23,-2.82 1.75,-4.12 1.72,-4.34 4.46,-4.84 10.25,-8.33 2.01,-1.21 5.76,-3.8 7.91,-4.31 0.11,1.32 0.23,1.33 0.49,2.44 -1.08,1.62 -1.62,1.56 -3.05,2.82 -2.61,2.28 -5.92,6.35 -8.83,8.77 -1.38,1.16 -1.84,1.37 -3.16,2.71l-8.92 8.68zm13.69 -30.31c2.55,-0.68 3.32,-3.23 5.87,-3.91l2.93 7.33c-2.24,1.18 -5.74,3.54 -7.33,3.91 -0.06,-2.67 -1.12,-4.67 -1.47,-7.33zm-12.22 -2.93c2.82,0.66 6.04,1.95 8.76,2.97 3.61,1.36 2.33,4.9 3.95,8.27 -2.33,1.23 -5.17,2.95 -7.33,4.4l-5.38 -15.64zm30.31 21.02c0,-16.55 -4.32,-11.56 4.28,-20.17 1.52,-1.51 2.82,-3.69 5.01,-4.28l-1.16 15.46c-1,3.43 -4.93,8.13 -8.13,8.98zm-17.6 -20.04c0.56,-2.42 1.9,-6.27 1.95,-8.8 1.62,1.19 0.44,0.04 1.36,2.06 0.54,1.18 0.79,1.55 1.09,2.82 -0.51,0.76 -3.57,3.36 -4.4,3.91zm4.4 -8.31c1.01,0.74 1.74,2.04 2.65,3.22l7.62 9.98c-1.68,1.13 -1.97,2.42 -3.91,2.93l-6.36 -16.14zm-6.36 9.29c-3.63,-0.85 -6.55,-2.55 -10.27,-3.42 0.43,-1.63 9.43,-7.52 11.36,-8.77 4.37,-2.83 0.7,4.51 -1.09,12.19zm4.4 -14.67l9.21 -11.81c0.3,-0.39 0.32,-0.42 0.65,-0.82 0.33,-0.41 0.63,-0.75 0.9,-1.06l1.96 29.82c-1.45,-0.97 -11.8,-14.77 -12.71,-16.14zm12.22 -14.67c3.25,2.18 5.52,5.89 7.13,9.49 6.24,13.95 5.84,11.01 0.08,16.79 -1.74,1.74 -3.27,3.19 -5.26,4.52l-0.47 -7.35c-0.05,-5.28 -1.49,-18.22 -1.49,-23.45zm-28.85 24.45c-0.41,-1.74 -1.21,-3.26 -1.56,-4.81 -0.58,-2.63 3.23,-4.91 6.05,-6.83 4.91,-3.34 16.33,-12.39 21.42,-12.81 -0.81,1.53 -9.09,12.54 -10.89,14.04 -1.07,0.9 -13.6,10.03 -15.02,10.41z"/>
   <path class="fil0" d="M57.69 59.65c-9.78,0 -9.78,-1.22 -9.78,-10.75 0,-7.22 9.36,-5.38 17.6,-5.38 0,5.81 1.48,16.13 -7.82,16.13zm7.82 -23.95c-9.33,0 -16.03,-1.4 -21.16,3.77 -8.44,8.5 -4.75,28.01 9.43,28.01 10.07,0 5.77,-0.57 11.74,-1.96l0.55 1.94 7.27 0.02 0 -39.11c0,-2.21 -2.51,-1.47 -7.82,-1.47l0 8.8z"/>
   <path class="fil0" d="M97.78 59.65c-8.61,0 -9.78,-1.16 -9.78,-9.78 0,-8.17 7.46,-6.36 16.62,-6.36 2.09,0 1.47,1.88 1.47,6.36 0,5.34 -3.05,9.78 -8.31,9.78zm-17.6 -9.78c0,13.54 5.48,17.6 17.6,17.6 4.05,0 5.49,-1.72 8.31,-1.96 0.21,2.46 -0.01,1.96 6.36,1.96 1.13,0 1.47,-0.34 1.47,-1.47l0 -28.85c0,-1.13 -0.34,-1.46 -1.47,-1.46l-19.56 0c-3.54,0 -7.16,2.28 -8.93,4.27 -1.97,2.21 -3.78,5.9 -3.78,9.91z"/>
   <path class="fil0" d="M17.11 59.65c-5.56,0 -9.78,0.21 -9.78,-8.31 0,-9.93 6.66,-7.82 18.09,-7.82 0,6.11 1.42,16.13 -8.31,16.13zm-17.11 -11.73l0 7.33c0,6.5 6.92,12.22 13.69,12.22 4.97,0 7.82,0.18 11.73,-2.45 0.07,3.08 -0.28,2.45 7.82,2.45l0 -30.31c0,-1.13 -0.34,-1.46 -1.47,-1.46l-19.56 0c-5.92,0 -12.22,6.3 -12.22,12.22z"/>
   <path class="fil0" d="M170.14 59.65c-9.81,0 -12.22,0.51 -12.22,-9.78 0,-7.74 6.58,-6.36 12.71,-6.36 7.08,0 7.64,16.13 -0.49,16.13zm-20.05 -9.78c0,7.01 1.18,13.32 8.15,16.3 8.83,3.77 25.1,0.56 25.1,-10.92l0 -7.33c0,-5.99 -6.33,-12.22 -12.22,-12.22 -6.82,0 -12.57,-0.99 -17.24,4.27 -1.96,2.21 -3.78,5.9 -3.78,9.91z"/>
   <path class="fil0" d="M121.25 66c0,2.21 2.51,1.47 7.82,1.47l0 -17.11c0,-2.81 3.16,-6.01 5.58,-6.65 3.04,-0.8 8.42,0.15 12.03,-0.69l0 -7.33c-6.71,0 -12.4,-0.8 -17.6,1.95 -0.22,-2.59 -0.1,-1.95 -7.82,-1.95l0 30.31z"/>
   <path class="fil0" d="M52.8 84.09l0 17.11c0,1.9 1.25,1.47 4.4,1.47l0 -10.27 3.43 6.35 2.92 0.01c0.45,-1.93 2.05,-5.35 3.42,-6.36l0 10.27 3.91 0 0 -20.04 -3.91 0c-0.33,1.41 -4,9.26 -5.38,10.27 -0.26,-3.16 -3.63,-6.97 -4.4,-10.27 -2.18,0 -4.4,-0.65 -4.4,1.46z"/>
   <path class="fil0" d="M83.61 102.67l3.91 0 0 -11.24c1.64,1.1 2.12,2.71 3.91,5.38 0.97,1.45 2.95,4.12 3.42,5.87l3.91 0 0 -20.04 -3.91 0 0 11.24c-2.37,-1.59 -6.51,-11.24 -8.8,-11.24l-2.44 0 0 20.04z"/>
   <path class="fil0" d="M126.63 91.43l-2.93 0 0 -4.89c4.37,0 5.87,-0.43 5.87,2.93 0,1.5 -1.43,1.96 -2.93,1.96zm-6.84 11.24l3.91 0 0 -7.82c3.8,0 2.79,1.09 6.36,7.82l4.4 0c-0.71,-3.06 -3.2,-5.73 -3.91,-8.8 4.98,-1.33 5.22,-11.24 -4.4,-11.24l-6.36 0 0 20.04z"/>
   <path class="fil0" d="M103.16 102.67l11.73 0c2.12,0 2.12,-3.91 0,-3.91l-7.82 0 0 -4.4 7.82 0 0 -3.42 -7.82 0 0 -4.4c9.59,0 9.29,0.75 9.29,-2.45 0,-1.13 -0.34,-1.46 -1.47,-1.46l-11.73 0 0 20.04z"/>
   <path class="fil0" d="M144.23 89.47c0.51,2.18 1.8,4.42 1.96,6.36l-3.91 0c0.04,-1.72 0.94,-4.89 1.95,-6.36zm-8.8 13.2l4.4 0c0.12,-1.5 0.46,-2.35 0.98,-3.42l6.84 0c0.33,3.96 1.01,3.42 4.89,3.42 -0.07,-3.12 -5.9,-16.01 -6.84,-20.04l-2.93 0 -7.33 20.04z"/>
   <path class="fil0" d="M169.65 88.98c0,7.54 9.78,3.78 9.78,7.82 0,2.61 -4.2,3.24 -8.31,0.49 -1.01,1.51 -1.46,1.09 -1.96,2.93 2.66,3.63 14.18,3.85 14.18,-2.93 0,-2.55 0.1,-5.31 -4.03,-6.23 -2.32,-0.52 -5.75,-0.1 -5.75,-2.57 0,-3.85 7.12,-1.03 7.33,-0.98l2.05 -2.36c-2.84,-3.8 -13.29,-4.11 -13.29,3.83z"/>
   <polygon class="fil0" points="154.99,102.67 167.7,102.67 167.7,98.76 158.9,98.76 158.9,82.63 154.99,82.63 "/>
   <polygon class="fil0" points="75.29,102.67 79.21,102.67 79.21,82.63 75.29,82.63 "/>
  </g>
 </g>
</svg>
