<?xml version="1.0" encoding="UTF-8"?>
<!DOCTYPE svg PUBLIC "-//W3C//DTD SVG 1.1//EN" "http://www.w3.org/Graphics/SVG/1.1/DTD/svg11.dtd">
<!-- Creator: CorelDRAW 2021.5 -->
<svg xmlns="http://www.w3.org/2000/svg" xml:space="preserve" width="53.2408mm" height="9.3404mm" version="1.1" style="shape-rendering:geometricPrecision; text-rendering:geometricPrecision; image-rendering:optimizeQuality; fill-rule:evenodd; clip-rule:evenodd"
viewBox="0 0 2498.84 438.39"
 xmlns:xlink="http://www.w3.org/1999/xlink"
 xmlns:xodm="http://www.corel.com/coreldraw/odm/2003">
 <defs>
  <style type="text/css">
   <![CDATA[
    .fil0 {fill:white;fill-rule:nonzero}
   ]]>
  </style>
 </defs>
 <g id="Layer_x0020_1">
  <metadata id="CorelCorpID_0Corel-Layer"/>
  <g id="__x0023_0b5d47ff">
   <path class="fil0" d="M313.35 0l53.67 0c-7.04,11.71 -15.66,22.33 -23.45,33.53 -96.95,134.74 -193.74,269.61 -290.66,404.36 -17.63,0.34 -35.29,0.12 -52.92,0.15l0 -2.53c104.9,-144.83 208.68,-290.5 313.35,-435.51z"/>
   <path class="fil0" d="M418.6 0l106.18 0c-104.71,146.33 -209.8,292.37 -314.92,438.39l-106.34 0c105.09,-146.07 210.02,-292.28 315.08,-438.39z"/>
   <g>
    <path class="fil0" d="M577.99 0l1920.85 0 0 438.39 -2236.21 0c105.09,-146.14 209.71,-292.66 315.36,-438.39l0 0zm18.13 109.56c0.5,73.68 -0.13,147.39 0.28,221.08 21.51,-0.72 43.05,0.06 64.57,-0.47 -1.5,-25.96 -0.03,-51.98 -0.84,-77.97 35.51,-2.38 72.68,4.54 106.69,-8.86 17.66,-6.51 32.53,-21.07 37.2,-39.61 6.11,-24.36 2.69,-53.48 -16.22,-71.55 -18.48,-18.38 -45.81,-22.8 -70.8,-23.02 -40.3,0.31 -80.6,-0.5 -120.87,0.41l0 0zm952.37 2.51c-24.8,5.23 -48.63,18 -63.97,38.58 -15.91,21.33 -21.23,48.76 -20.29,74.9 0.87,24.96 8.2,50.73 25.33,69.49 19.91,22.45 50.01,33.23 79.29,35.76 30.47,1.94 62.38,1.29 90.53,-11.93 26.84,-11.74 47.28,-36.32 54.02,-64.82 6.73,-28.97 5.7,-60.69 -7.04,-87.93 -11.81,-25.42 -36.01,-43.65 -62.66,-51.23 -30.78,-8.99 -63.88,-9.33 -95.19,-2.82l0 0zm216.28 8.99c-19.45,9.65 -33.44,29.49 -34.54,51.35 -2.44,19.38 7.02,39.3 23.83,49.32 30.94,19.16 69.02,17.78 102.77,28.87 7.83,2.88 16.35,9.49 15,18.88 -0.15,12.34 -13.43,18.41 -24.02,19.82 -15.03,1.6 -31.03,2.79 -45.4,-2.6 -11.78,-4.69 -14.5,-18.13 -14.87,-29.37 -20.67,0.07 -41.34,-0.03 -61.97,0.07 0.35,17.25 3.38,35.85 15.88,48.75 17.35,18.48 44,23.86 68.33,25.05 33.69,1.09 70.45,0.81 99.36,-18.98 31.66,-20.89 34.51,-76.12 1,-96.57 -32.1,-19.76 -71.68,-17.72 -106.18,-30.78 -8.99,-2.98 -15.35,-13.31 -10.24,-22.27 11.15,-15.81 33.57,-14.12 50.7,-12.87 13.43,0.56 24.17,11.33 25.61,24.58 20.01,-0.72 40.12,0.6 60.09,-0.69 -2.41,-12.94 -3.69,-26.78 -12.15,-37.45 -12.75,-17.03 -34.45,-23.45 -54.65,-26.18 -32.91,-4.2 -68.26,-4.26 -98.54,11.06l0 0zm-946.05 -7.58c0.38,70.99 0.03,142.01 0.19,213.03 61.63,0.03 123.28,-0.53 184.91,0.28 1.16,-14.69 0.22,-29.4 0.54,-44.12 -41.24,0 -82.52,0.47 -123.75,-0.22 0.44,-14.09 0.34,-28.18 0.06,-42.27 38.17,-0.13 76.38,-0.06 114.58,0 -0.22,-14.59 -0.22,-29.22 -0.06,-43.81 -38.14,0.16 -76.28,0 -114.42,0.09 0.13,-13.09 0.19,-26.18 -0.03,-39.27 40.27,0 80.57,-0.13 120.88,0.09 0,-14.62 -0.09,-29.22 0.09,-43.84 -61,0.22 -121.96,0.16 -182.97,0.03l0 0zm194.65 0.28c0.44,14.47 0.22,28.97 0.15,43.46 27.34,-0.18 54.67,0.1 82.01,-0.15 -0.15,56.43 0.03,112.89 -0.13,169.32 20.76,0 41.56,0.06 62.32,-0.03 -0.47,-56.46 -0.22,-112.95 -0.13,-169.44 27.31,0.56 54.61,0.09 81.92,0.25 -0.22,-14.56 -0.44,-29.12 0.12,-43.68 -75.43,0.31 -150.87,-0.22 -226.27,0.28l0 0zm235.26 -0.31c0.09,71.02 0.09,142.01 0,213.03 20.64,-0.07 41.27,-0.19 61.91,0.03 0.13,-26.96 0.16,-53.92 -0.06,-80.88 18.1,0.25 36.23,-0.41 54.36,0.34 10.62,0.41 23.3,4.86 26.12,16.41 5.79,20.95 4.38,43.28 10.99,64.1 21.92,-0.07 43.87,-0.29 65.79,0.15 -9.36,-26.49 -8.67,-55.33 -18.13,-81.79 -5.8,-17.16 -26.03,-23.36 -42.49,-22.17 0.5,-0.88 1.47,-2.6 1.94,-3.48 18.44,-2.57 36.6,-12.81 45.63,-29.5 10.2,-20.23 4.35,-47.63 -14.28,-61 -16.28,-11.53 -36.76,-14.94 -56.3,-15.09 -45.15,-0.16 -90.31,0.12 -135.46,-0.16l0 0zm698.2 0.13c0.15,70.96 0.09,141.94 0.03,212.91 77.59,-0.13 155.22,-0.16 232.81,0.03 7.24,-14.12 13.81,-28.53 21.14,-42.58 41.05,0.15 82.14,0.34 123.22,-0.13 7.61,13.9 13.59,28.62 20.92,42.68 23.11,-0.16 46.22,-0.09 69.36,0 -37.36,-70.74 -73.9,-141.92 -110.88,-212.84 -23.61,-0.09 -47.25,-0.12 -70.83,-0.03 -4.67,-0.91 -5.58,4.63 -7.52,7.45 -28.65,53.98 -57.02,108.1 -86.11,161.83 -43.37,-0.25 -86.71,-0.09 -130.08,-0.06 0.09,-14.25 0.16,-28.49 -0.06,-42.74 37.17,0.15 74.34,-0.13 111.54,0.15 0.31,-14.59 -0.03,-29.18 0.19,-43.78 -37.14,0.13 -74.31,-0.44 -111.45,0.28 -0.28,-13.28 -0.15,-26.55 -0.09,-39.83 39.33,0.62 78.66,0.03 118.02,0.28 -0.25,-14.59 -0.03,-29.22 -0.15,-43.81 -60,0.44 -120.03,0.03 -180.06,0.19z"/>
   </g>
   <path class="fil0" d="M1574.02 152.75c19.98,-3.07 42.68,-1.88 58.93,11.52 16.75,14.12 21.11,37.39 21.01,58.24 -0.63,21.01 -7.04,44.44 -25.77,56.36 -18.45,11.21 -41.87,11.84 -62.19,5.92 -17.25,-5.07 -30.16,-20.2 -34.63,-37.32 -5.48,-21.33 -5.29,-44.84 3.73,-65.2 6.79,-15.78 22.2,-26.62 38.92,-29.53z"/>
   <path class="fil0" d="M660.28 152.18c16.75,0 33.47,-0.31 50.2,0.09 13.59,0.07 28.53,8.8 29.81,23.45 2.91,13.37 -5.14,28.18 -18.89,31.16 -20.04,4.1 -40.74,1.25 -61.06,2.1 -0.06,-18.91 0.03,-37.86 -0.06,-56.81z"/>
   <path class="fil0" d="M1310.51 154.57c19.26,0.4 38.51,-0.57 57.71,0.62 8.55,0.97 18.38,2.03 24.36,8.99 10.65,12.02 4.67,35.01 -12.12,37.76 -22.92,4.89 -46.69,1.25 -69.95,2.35 0.15,-16.56 0.15,-33.16 0,-49.72z"/>
   <path class="fil0" d="M2219.24 244.97c15.81,-29.47 28.27,-60.94 44.94,-89.75 13.4,30.19 27.56,60.06 42.09,89.72 -29,-0.15 -58.03,-0.19 -87.02,0.03z"/>
  </g>
 </g>
</svg>
