<?xml version="1.0" encoding="UTF-8"?>
<!DOCTYPE svg PUBLIC "-//W3C//DTD SVG 1.1//EN" "http://www.w3.org/Graphics/SVG/1.1/DTD/svg11.dtd">
<!-- Creator: CorelDRAW 2021.5 -->
<svg xmlns="http://www.w3.org/2000/svg" xml:space="preserve" width="16.3279mm" height="3.9204mm" version="1.1" style="shape-rendering:geometricPrecision; text-rendering:geometricPrecision; image-rendering:optimizeQuality; fill-rule:evenodd; clip-rule:evenodd"
viewBox="0 0 924.82 222.05"
 xmlns:xlink="http://www.w3.org/1999/xlink"
 xmlns:xodm="http://www.corel.com/coreldraw/odm/2003">
 <defs>
  <style type="text/css">
   <![CDATA[
    .fil0 {fill:#FEFEFE}
   ]]>
  </style>
 </defs>
 <g id="Layer_x0020_1">
  <metadata id="CorelCorpID_0Corel-Layer"/>
  <g id="_2525619674704">
   <path class="fil0" d="M-0 222.05l56.67 0 0.05 0 18.12 0c0.32,-0.03 0.62,-0.07 0.91,-0.11 7.78,-1.17 13.86,-4.41 18.93,-9.54 2.17,-2.2 10.05,-14.02 11.75,-16.74 3.23,-5.18 8.52,-12.63 11.26,-17.21l29.96 -46.2c0.62,-0.95 1.13,-1.86 1.8,-2.85 0.69,-1.03 1.37,-1.98 1.97,-2.98 2.83,-4.74 11.73,-18.55 15.12,-22.95 3.6,-4.67 9.5,-8.26 9.88,-9.3 -25.23,0 -50.67,-0.32 -75.87,-0.01 -2.48,0.03 -6.05,0.67 -8.13,1.17 -3.71,0.89 -5.5,1.73 -8.52,3.39 -3.55,1.94 -6.6,4.59 -9.04,7.82l-43.06 66.22c-7.45,11.16 -14.92,23.45 -22.38,34.59l-5.69 8.84c-1.29,2 -2.61,3.77 -3.72,5.87z"/>
   <path class="fil0" d="M154.62 169.45c17.73,0 35.46,0 53.19,0 15.43,0 31.23,2.39 42.35,-10.84 5.11,-6.08 33.04,-50.08 40.72,-62.17 0.52,-0.82 0.97,-1.23 1.22,-2.27 -17.73,0 -35.46,0 -53.19,0 -22.84,0 -35.93,-1.84 -47.87,18.4l-5.27 8.11c-2.39,3.59 -30.76,47.06 -31.15,48.77z"/>
   <path class="fil0" d="M292.1 74.99c-0.51,-1.91 -36.32,-56.37 -36.33,-56.39 -1.76,-2.63 -3.51,-5.4 -5.59,-7.78 -0.61,-0.7 -0.76,-1.05 -1.45,-1.74 -0.69,-0.69 -1.04,-0.83 -1.74,-1.45 -5.94,-5.18 -12.17,-7.03 -18.92,-7.62l-20.25 0c-17.73,0 -35.46,0 -53.19,0l12.73 20.11c0.95,1.41 1.68,2.67 2.62,4.07 6.06,9.03 12.23,19.25 18.25,28.25 3.06,4.58 4.53,7.28 8.13,11.93 3.57,4.6 10.94,8.47 16.71,9.74 7.2,1.58 17.3,0.89 25.85,0.89 17.73,0 35.46,0 53.19,0z"/>
   <path class="fil0" d="M653.94 170.61l17.15 0 2.67 -21.74c0.55,-4.46 2.56,-18.41 2.56,-21.85l0.58 0c0.1,1.2 1.28,3.99 1.78,5.49 2.8,8.41 6.99,18.61 9.82,27.1 0.49,1.48 3.72,9.86 3.81,11.01l6.1 0c1.68,-3.49 10.77,-28.31 12.66,-33.25 0.76,-1.99 1.31,-3.52 2.07,-5.48 0.39,-0.99 0.66,-1.75 1.04,-2.74 0.48,-1.25 0.44,-2.02 1.37,-2.7 0,2.06 0.15,3.46 0.41,5.4l3.94 38.78 17.73 0c-0.03,-1.31 -0.43,-3.15 -0.63,-4.6l-9.12 -65.57c-0.24,-1.64 -0.59,-3.36 -0.71,-4.81l-17.44 0 -3.52 9.84c-1.5,4.51 -9.7,26.88 -10.43,29.97l-0.91 -2.28c-0.27,-0.83 -0.57,-1.7 -0.87,-2.62l-10.25 -30.16c-0.66,-1.98 -1.15,-4.76 -2.21,-4.76l-15.41 0c-1.13,0 -0.85,1.21 -1.29,3.94l-2.18 14.39c-1.7,12.47 -4.03,25.3 -5.78,37.82 -0.44,3.15 -0.93,6.39 -1.42,9.33 -0.28,1.66 -1.16,8.71 -1.54,9.5z"/>
   <path class="fil0" d="M780.67 170.61l17.15 0 0 -46.79c0.23,0.27 0.25,0.29 0.52,0.65 0.24,0.32 0.24,0.36 0.48,0.68l11.15 16.18c0.71,1.06 1.31,1.81 2.04,2.9 0.75,1.13 1.34,2.03 2.14,3.1l8.05 11.71c0.75,1.01 1.31,1.84 2.02,2.92l4.04 5.84c0.52,0.69 1.58,2.82 2.41,2.82l16.27 0 0 -74.98 -17.15 0 0 45.92c-0.99,-0.66 -6.93,-9.63 -8.14,-11.33l-20.05 -29.07c-0.58,-0.81 -3.25,-5.52 -4.36,-5.52l-16.57 0 0 74.98z"/>
   <path class="fil0" d="M491.77 129.34l-9.3 0 0 -18.6c4.49,0 14.7,-0.73 17.38,1.81 1.86,1.76 2.97,3.09 2.97,6.62 0,1.52 -0.23,3.38 -0.69,4.55 -1.34,3.47 -5.59,5.62 -10.36,5.62zm-15.98 -33.71l-12.79 0 0 74.98 19.47 0 -0.29 -28.48c3.83,0 3,-0.25 3.79,0.57l9.75 13.5c2.2,3.2 9.02,12.02 10.29,14.42l21.8 0c-3.32,-4.95 -16.23,-20.85 -20.51,-26.57 -1.04,-1.4 -2.14,-2.61 -3.03,-3.94 4.62,-0.39 9.3,-4.62 11.85,-7.33 3.49,-3.73 4.42,-10.2 4.42,-16.5 0,-5.36 -1.68,-9.09 -4.16,-12.12 -7.02,-8.6 -10.98,-8.81 -24.32,-8.81 -3.03,0 -5.02,0.31 -7.85,0.29 -2.81,-0.01 -5.62,0 -8.43,0z"/>
   <polygon class="fil0" points="402.54,170.61 450.79,170.61 450.79,154.33 420.27,154.33 420.27,140.96 449.91,140.96 449.91,124.69 420.27,124.69 420.27,111.61 450.79,111.61 450.79,95.63 402.54,95.63 "/>
   <path class="fil0" d="M890.53 118.29c0.65,0.93 5.14,16.45 5.78,18.35 0.37,1.09 0.59,2.02 0.95,3.13 0.29,0.92 0.74,2.06 0.84,3.23l-14.53 0c0.48,-2.06 1.14,-4.19 1.71,-6.14l5.26 -18.57zm-34 52.31l17.73 0 2.16 -6.56c0.47,-1.22 2.11,-5.47 2.2,-6.52l24.41 0c0.67,2.9 3.61,11.07 3.78,13.08l18.02 0c-1.65,-7.1 -9.78,-28.61 -12.21,-37.49 -1.7,-6.24 -4.4,-12.36 -6.1,-18.6 -0.86,-3.14 -2.03,-6.23 -3.09,-9.41 -0.55,-1.64 -1.03,-3.09 -1.53,-4.58 -0.42,-1.27 -1.38,-3.62 -1.49,-4.9l-18.89 0c-0.12,1.45 -17.64,52.78 -18.78,56.2l-4.65 13.96c-0.5,1.51 -1.44,3.34 -1.56,4.83z"/>
   <path class="fil0" d="M613.55 118.58l0.58 0c0.16,1.86 2.87,9.65 3.6,12.1l3.67 12.31 -14.53 0c0.2,-2.45 6.64,-22.41 6.69,-24.42zm-33.72 52.02l17.44 0 4.65 -13.08 24.42 0c0.11,1.37 1.36,5.06 1.85,6.58 0.71,2.18 1.42,4.34 1.93,6.5l18.02 0 -23 -70c-0.33,-0.99 -1.33,-3.93 -1.41,-4.98l-18.9 0c-0.77,3.31 -11.41,34.09 -12.53,37.45 -2.07,6.22 -4.26,12.49 -6.32,18.68 -1.06,3.19 -2.04,6.12 -3.12,9.37 -0.55,1.64 -1.03,3.09 -1.53,4.58 -0.42,1.27 -1.38,3.62 -1.49,4.9z"/>
   <path class="fil0" d="M363.01 129.92c-3.44,0 -5.99,-0.29 -9.59,-0.29l0 -18.89c5.34,0 14.78,-0.9 18.44,1.9 3.7,2.83 3.65,4.42 3.65,8.27 0,4.11 -3.34,7.91 -7.37,8.61 -1.21,0.21 -3.95,0.4 -5.13,0.4zm-26.45 40.68l16.86 0 0 -25.28c10.24,0 24.18,2.14 32.48,-5.59 9.07,-8.44 10.1,-25.56 3.02,-35.15 -5.66,-7.67 -12.77,-8.96 -23.01,-8.96l-29.36 0 0 74.98z"/>
   <polygon class="fil0" points="527.23,111.61 547.28,111.61 547.28,170.61 564.72,170.61 564.72,111.61 584.77,111.61 584.77,95.63 527.23,95.63 "/>
   <polygon class="fil0" points="748.11,170.61 765.84,170.61 765.84,95.63 748.11,95.63 "/>
  </g>
 </g>
</svg>
