<?xml version="1.0" encoding="UTF-8"?>
<!DOCTYPE svg PUBLIC "-//W3C//DTD SVG 1.1//EN" "http://www.w3.org/Graphics/SVG/1.1/DTD/svg11.dtd">
<!-- Creator: CorelDRAW 2021.5 -->
<svg xmlns="http://www.w3.org/2000/svg" xml:space="preserve" width="6.9482mm" height="5.0241mm" version="1.1" style="shape-rendering:geometricPrecision; text-rendering:geometricPrecision; image-rendering:optimizeQuality; fill-rule:evenodd; clip-rule:evenodd"
viewBox="0 0 72.04 52.09"
 xmlns:xlink="http://www.w3.org/1999/xlink"
 xmlns:xodm="http://www.corel.com/coreldraw/odm/2003">
 <defs>
  <style type="text/css">
   <![CDATA[
    .fil0 {fill:white}
   ]]>
  </style>
 </defs>
 <g id="Layer_x0020_1">
  <metadata id="CorelCorpID_0Corel-Layer"/>
  <g id="_2525619683536">
   <polygon class="fil0" points="-0,9.05 -0,18.1 26.6,18.1 26.6,24.38 36.09,24.46 45.59,24.57 47.44,29.15 49.25,33.73 51.09,29.04 52.9,24.38 72.04,24.38 72.04,0 -0,0 "/>
   <path class="fil0" d="M13.3 27.89l0 3.14 13.3 0 0 6.65 -13.3 0 0 6.28 -13.3 0 0 8.13 72.04 0 0 -8.13 -13.3 0 0 -6.21 -0.04 -6.17 -2.51 6.1 -2.55 6.1 -4.4 0.11 -4.36 0.11 -2.55 -6.5 -2.55 -6.46 -13.19 0 0 -6.28 -13.3 0 0 3.14zm26.53 12.82l0.11 3.25 -13.34 0 0 -3.07c0,-1.7 0.11,-3.21 0.26,-3.36 0.15,-0.11 3.1,-0.18 6.54,-0.15l6.32 0.11 0.11 3.21z"/>
  </g>
 </g>
</svg>
