<?xml version="1.0" encoding="UTF-8"?>
<!DOCTYPE svg PUBLIC "-//W3C//DTD SVG 1.1//EN" "http://www.w3.org/Graphics/SVG/1.1/DTD/svg11.dtd">
<!-- Creator: CorelDRAW 2021.5 -->
<svg xmlns="http://www.w3.org/2000/svg" xml:space="preserve" width="19.8076mm" height="3.5246mm" version="1.1" style="shape-rendering:geometricPrecision; text-rendering:geometricPrecision; image-rendering:optimizeQuality; fill-rule:evenodd; clip-rule:evenodd"
viewBox="0 0 444.33 79.06"
 xmlns:xlink="http://www.w3.org/1999/xlink"
 xmlns:xodm="http://www.corel.com/coreldraw/odm/2003">
 <defs>
  <style type="text/css">
   <![CDATA[
    .fil1 {fill:#F2F2F2}
    .fil0 {fill:#FEFEFE}
   ]]>
  </style>
 </defs>
 <g id="Layer_x0020_1">
  <metadata id="CorelCorpID_0Corel-Layer"/>
  <g id="_2527397611008">
   <path class="fil0" d="M-0 27.2c0,9.75 2.32,21.81 11.6,26.16 2.07,0.97 4.74,1.3 7.51,1.02 2.34,-0.24 4.68,-1.48 6.51,-2.39 3.03,-1.51 2.55,-1.46 6.05,-2.86 4.88,-1.94 10.49,-1.61 15.4,0.1 5.87,2.05 13.15,7.25 20.92,4.24 1.04,-0.4 2.02,-0.97 2.85,-1.6l1.17 -0.97c1.68,-1.39 3.59,-4.81 4.56,-6.82 2.32,-4.81 3.24,-10.48 3.24,-16.71 0,-5.35 -3.58,-11.86 -7.42,-14.67l-1.46 -1.18c-0.54,-0.39 -1.14,-0.79 -1.68,-1.12 -2.96,-1.78 -6.86,-3.26 -10.4,-3.61 -2.69,-0.26 -4.26,-0.25 -6.97,0.24 -3.25,0.58 -7.88,2.41 -10.31,4.52 4.75,0.4 8.19,2.47 10.84,5.15 0.65,0.66 1.19,1.45 1.72,2.24 0.55,0.82 0.96,1.62 1.4,2.56 0.73,1.55 1.45,5.08 1.37,6.69 -0.03,0.52 -0.12,1.09 -0.17,1.82 -0.54,7.46 -8.12,14.52 -15.49,14.52 -4.33,0 -7.24,-0.57 -10.7,-3.15 -4.01,-3 -6.78,-7.98 -6.78,-13.17 0,-3.89 1.69,-7.48 3.19,-10.5 2.29,-4.62 6.82,-10.83 10.29,-14.77l2.68 -2.93 -28.36 0c-0.71,1.05 -2.8,3.17 -4.29,5.28 -1.29,1.83 -2.57,3.98 -3.57,6.15 -1.85,3.99 -3.68,10.03 -3.68,15.77z"/>
   <path class="fil0" d="M0.33 50.12c-0.35,0.51 -0.18,2.84 -0.18,3.46 0,7.84 0.19,17.31 -0.01,24.74l79.52 0c-0.22,-7.49 -0.01,-17.15 -0.01,-25.07 0,-0.68 0.21,-2.73 -0.18,-3.25l-0.33 0.45c-3.82,6.4 -9.16,10.22 -17.48,10.23 -2.99,0 -6.12,-0.81 -8.63,-1.92l-4.65 -2.43c-0.82,-0.49 -1.55,-0.84 -2.38,-1.25 -1.98,-0.99 -3.11,-1.26 -5.65,-1.61 -3.45,-0.47 -7.45,2.45 -10.34,3.75 -1.65,0.74 -3.38,1.28 -5.25,1.84 -1.48,0.44 -4.41,0.98 -6.14,1.12 -5.07,0.41 -9.63,-0.72 -13.46,-3.99 -1.58,-1.36 -2.27,-2 -3.51,-3.74 -0.57,-0.81 -0.85,-1.42 -1.32,-2.31z"/>
   <path class="fil0" d="M115.24 71.39l-6.1 0 0 -12.03c3.38,0 10.55,-0.51 12.89,1.12 2.18,1.52 2.12,3.02 2.12,5.31 0,2.1 -1.28,3.8 -2.69,4.57 -1.57,0.85 -3.86,1.04 -6.22,1.04zm0.83 -18.47l-6.92 0 0 -11.71 7.58 0c2.55,0 4.96,0.86 5.8,3.1 1.16,3.12 0.38,7.18 -3.56,8.2 -0.85,0.22 -1.93,0.4 -2.9,0.4zm-16.32 -18.46l0 44.02 18.3 0c5.47,0 11.29,-2.45 13.74,-6.87 2.21,-3.98 2.51,-10.04 -1.17,-13.28 -1.1,-0.98 -4,-2.61 -5.81,-2.76 0.03,-0.02 0.09,-0.09 0.11,-0.06 0.02,0.04 0.11,-0.07 0.21,-0.12 1.03,-0.52 1.03,-0.37 2.32,-1.15 0.62,-0.38 1.9,-1.24 2.34,-1.78 2.12,-2.53 2.45,-4.05 2.45,-7.28 0,-4.13 -2.22,-7.3 -5.66,-9.01 -3.85,-1.91 -8.01,-2.2 -12.64,-2.2l-13.68 0c-0.38,0 -0.49,0.11 -0.49,0.49z"/>
   <path class="fil0" d="M173.27 78.47l8.08 0c0.38,0 0.5,-0.11 0.5,-0.5l0 -13.68c3.78,0 2.91,-0.58 6.64,5.72l4 6.55c0.66,1.01 1.06,1.69 2.41,1.88 2,0.28 6.14,0.04 8.37,0.04l-7.15 -11.31c-0.55,-0.82 -0.94,-1.49 -1.49,-2.31l-1.42 -2.21c-0.76,-1.08 -1.5,-1.59 -1.65,-2.14 1.13,-0.3 3.66,-3.77 4.43,-4.8 0.47,-0.63 0.88,-1.14 1.38,-1.75 0.5,-0.6 0.88,-1.13 1.38,-1.76l2.75 -3.51c0.42,-0.56 1.1,-1.23 1.27,-1.86 -2.45,0 -5.54,-0.17 -7.91,0 -1.27,0.09 -1.94,0.58 -2.6,1.36l-6.78 9.04c-1.15,1.55 -1.55,1.46 -3.65,1.46l0 -25.39c0,-0.38 -0.12,-0.5 -0.5,-0.5l-8.08 0 0 45.67z"/>
   <path class="fil0" d="M350.99 47.49l-3.99 -0.04 -0.02 30.87 5.66 -0 -0.01 -20.29c0,-0.5 0,-0.99 -0,-1.49 0,-0.14 -0.02,-0.55 -0,-0.66 0.06,-0.54 0.05,-0.3 0.19,-0.51 0.41,-0.26 1.09,-1.39 2.73,-2.52 0.92,-0.63 2.64,-1.33 4.19,-1.26 3.25,0.15 5.12,2.25 5.28,5.45 0.34,6.83 0.17,14.33 0.17,21.43 1.48,0 2.98,-0.02 4.46,0 1.81,0.03 1.48,0.34 1.48,-2.97 0,-3.6 -0.19,-15.35 0.01,-17.96 0.18,-2.47 1.73,-4.6 3.69,-5.38 2.47,-0.99 5.28,-0.59 6.82,0.96 1.82,1.83 1.68,3.88 1.68,7.38 0,5.99 0,11.98 0,17.97 1.32,0 2.64,-0 3.96,0 2.32,0.01 2.17,0.46 2.14,-1.81 -0.05,-5.76 0.51,-19.38 -0.8,-23.27 -2.42,-7.17 -10.94,-7.95 -15.72,-4.96 -1.01,0.63 -1.34,0.99 -2.15,1.8 -0.56,0.55 -1.41,1.68 -1.61,2.52l-0.33 0c-0.06,-0.71 -0.87,-2.16 -1.25,-2.71 -3.03,-4.46 -9.69,-4.12 -13.63,-0.13 -1.59,1.61 -1.5,1.75 -1.63,0.4 -0.13,-1.32 -0.07,-2.58 -1.3,-2.82z"/>
   <path class="fil0" d="M265.1 40.89c0.03,1.49 5.68,15.77 6.76,18.47 0.29,0.72 0.82,1.89 0.99,2.64l-15.66 0c0.1,-0.44 0.33,-0.91 0.5,-1.32l5.53 -14.42c0.39,-0.96 0.66,-1.62 1,-2.63l0.89 -2.74zm-20.77 37.59c1.07,0 4.78,0.13 5.54,-0.07 1.48,-0.39 1.78,-2.08 2.33,-3.44l3.18 -8.2 19.45 0c0.07,0.82 2.67,7.17 3.03,8.18 1.57,4.41 1.49,3.52 7.85,3.52 -0.05,-0.63 -0.75,-2.13 -1.01,-2.78l-14.34 -35.94c-0.35,-0.87 -0.7,-1.76 -1.08,-2.71l-0.83 -2.13c-0.19,-0.34 -0.03,-0.46 -0.53,-0.46l-5.77 0c-0.57,0 -0.9,1.44 -1.32,2.47l-15.4 38.67c-0.37,0.92 -0.87,1.95 -1.08,2.87z"/>
   <path class="fil0" d="M146.89 68.09c-0.37,-0.59 -0.15,-9.74 -0.15,-10.39 0,-3.56 0.08,-7.22 -0.01,-10.77l-8.26 0 -0.06 21.82c0.47,2.45 0.55,4.06 2.29,6.36 1.27,1.68 2.82,2.82 5.11,3.47 4.54,1.29 8.14,-0.1 11.55,-2.66 0.48,-0.36 0.66,-0.74 1.24,-0.9 0,1.34 0.47,3.26 2.16,3.45 1.46,0.17 4.01,0.01 5.59,0.01l0 -31.65 -7.6 -0.02c-0.78,0 -0.84,-0.12 -0.97,0.51 -0.08,0.4 0,2.56 0,3.13 0,4.12 0,8.24 0,12.36 0,1.94 0.11,4.22 0.01,6.11 -0.05,0.93 -0.38,1.01 -1.38,1.76 -3.1,2.31 -7.96,2.65 -9.17,-1.29 -0.14,-0.47 -0.16,-0.92 -0.34,-1.31z"/>
   <path class="fil0" d="M404.24 38.25c0,13.15 12.43,23.13 25.83,19.23 2.2,-0.64 4.04,-1.8 4.51,-1.92 -0.17,-0.62 -1.13,-1.97 -1.49,-2.64 -0.17,0.04 -2.01,1.03 -3.44,1.51 -1.97,0.66 -3.12,0.8 -5.3,0.8l0 -2.64c1.92,0 3.57,-0.38 5,-0.94 4.13,-1.62 7.64,-5.11 8.69,-9.61l-2.97 0c-1.22,2.56 -1.65,3.79 -4.45,5.77 -6.66,4.72 -17.5,0.48 -17.74,-9.42 -0.25,-10.66 13.72,-15.63 20.31,-7.17 1.25,1.61 1.08,1.73 1.88,3.4l2.97 0c-0.98,-4.23 -4.63,-8.17 -8.55,-9.59 -1.48,-0.53 -3.08,-0.97 -5.13,-0.97l0 -2.64c4.69,0 5.54,1.2 6.92,1.32l1.16 -2.8 -3.66 -1.12c-4.32,-1.08 -8.97,-0.44 -12.83,1.29 -1.07,0.48 -2.22,1.16 -3.13,1.81 -5.23,3.71 -8.57,9.69 -8.57,16.32z"/>
   <path class="fil0" d="M224.87 46.99l-4.06 0.72c-1.3,0.2 -1.05,-0.24 -1.05,3.23 0,2.62 2.12,2.14 4.62,2.14l0 16.82c0,5.41 3.18,9.07 8.57,9.07 6.15,0 7.84,-2.35 8.9,-2.64 -0.06,-0.76 -1.89,-3.26 -2.3,-3.97 -1.4,-2.39 -2.1,-0.15 -4.3,-0.15 -1.57,0 -2.31,-1.36 -2.31,-2.97l0 -16.16 7.75 0c0.38,0 0.49,-0.11 0.49,-0.5l0 -5.11c0,-0.38 -0.11,-0.49 -0.49,-0.49l-7.75 0 0 -9.56c-7.84,0 -5.58,-1.15 -8.08,9.56z"/>
   <path class="fil0" d="M325.61 74.68l-1.65 0c-4.55,0 -6.75,-7.02 0.79,-8.94 2.18,-0.55 6.15,-1.12 8.45,-1.12l0 5.77c0,0.63 -2.42,2.53 -3.04,2.9 -1.16,0.7 -2.78,1.38 -4.55,1.38zm-9.89 -22.91c0.11,0.46 1.27,2.97 2.31,2.97 2.32,0 2,-0.74 4.45,-1.98 2.85,-1.45 7.44,-1.97 9.5,1.06 1.25,1.84 1.22,4.5 1.22,7.02 -1.59,0 -3.67,0.18 -5.23,0.38 -6.55,0.81 -15.05,3.28 -13.64,11.4 1.27,7.35 11.19,8.09 17.22,3.55 0.84,-0.63 1.72,-1.53 2.14,-1.65 0.01,0.56 0.37,2.07 0.55,2.59 0.6,1.79 2.13,1.37 4.73,1.37l0 -20.44c0,-6.32 -4.16,-11.21 -10.39,-11.21 -4.13,0 -7.46,0.73 -10.65,3.04 -0.76,0.55 -1.74,1.2 -2.21,1.91z"/>
   <path class="fil0" d="M288.51 55.89c0,7.71 7.54,8.14 12.37,10.05 1.75,0.69 3.63,1.71 3.63,3.96 0,3.37 -2.93,4.78 -6.27,4.78 -5.26,0 -6.96,-4.22 -8.95,-2.19l-1.6 2.69c2.12,1.42 0.82,1.01 4.17,2.58 3.14,1.47 8.17,1.62 11.51,0.41 4.25,-1.54 6.74,-4.8 6.74,-9.42 0,-4.46 -3.47,-6.47 -6.86,-7.65 -1.87,-0.65 -3.59,-1.16 -5.44,-1.81 -4.28,-1.51 -4.78,-4.73 -1.9,-6.89 1.99,-1.5 5.51,-1.29 7.71,-0.4 1.3,0.52 2.23,1.42 3.53,1.42 1.02,0 1.81,-1.71 2.47,-2.97 -0.66,-0.44 -1.18,-0.91 -1.91,-1.39 -0.62,-0.41 -1.56,-0.89 -2.28,-1.18 -7.16,-2.86 -16.91,0.22 -16.91,8.01z"/>
   <polygon class="fil0" points="206.88,78.33 215.16,78.32 215.15,46.93 206.88,46.96 "/>
   <path class="fil0" d="M205.75 37.92c0,4.53 5.26,6.93 8.86,3.91 3.08,-2.58 2.16,-9.02 -4.08,-9.02 -2.24,0 -4.78,2.31 -4.78,5.11z"/>
   <path class="fil0" d="M438.04 28.36c3.28,4.9 4.2,10.73 1.98,16.32 -0.32,0.81 -0.58,1.38 -1.02,2.11 -0.63,1.04 -1.07,1.39 -1.12,2.01 0.79,0.21 1.51,1.27 2.31,1.48 0.91,-0.61 2.35,-3.61 2.85,-4.89 2.53,-6.44 1.16,-13.35 -2.52,-18.85 -0.56,0.3 -2.15,1.38 -2.47,1.81z"/>
   <path class="fil1" d="M79.46 49.99c0.39,0.52 0.18,2.57 0.18,3.25 0,7.92 -0.2,17.58 0.01,25.07l-79.52 0c0.21,-7.43 0.01,-16.9 0.01,-24.74 0,-0.62 -0.17,-2.95 0.18,-3.46 -0.06,-0.27 0.1,-0.17 -0.33,-0.66l0 29.02 79.79 0 0 -29.02 -0.33 0.54z"/>
   <path class="fil1" d="M206.88 46.96l8.27 -0.03 0.02 31.39 -8.29 0 0 -31.37zm-0.14 31.52l8.57 0 0 -31.65 -8.57 0 0 31.65z"/>
   <path class="fil1" d="M352.81 55.37c-0.14,0.22 -0.13,-0.03 -0.19,0.51 -0.01,0.11 0,0.52 0,0.66 0.01,0.5 0,0.99 0,1.49l0.01 20.29 -5.66 0 0.02 -30.87 3.99 0.04c-0.54,-0.37 -3.42,-0.18 -4.12,-0.18l0 31.16 5.94 0 0 -23.11z"/>
   <path class="fil0" d="M435.9 25.39c1.61,0 2.47,-2.8 -0.33,-2.8 -0.59,0 -1.14,0.9 -1.11,1.46 0.03,0.68 0.61,1.34 1.44,1.34z"/>
   <path class="fil0" d="M435.73 38.25c0,2.02 2.8,2.02 2.8,0 0,-1.78 -2.8,-1.78 -2.8,0z"/>
   <path class="fil0" d="M435.24 52.1c0,1.89 2.8,1.89 2.8,0 0,-0.74 -0.67,-1.49 -1.32,-1.49 -0.81,0 -1.48,0.67 -1.48,1.49z"/>
   <path class="fil1" d="M138.4 68.75l0.06 -21.82 8.26 0c0.09,3.55 0.01,7.21 0.01,10.77 0,0.65 -0.22,9.8 0.15,10.39l0 -21.27 -8.57 0 0.08 21.93z"/>
  </g>
 </g>
</svg>
