<?xml version="1.0" encoding="UTF-8"?>
<!DOCTYPE svg PUBLIC "-//W3C//DTD SVG 1.1//EN" "http://www.w3.org/Graphics/SVG/1.1/DTD/svg11.dtd">
<!-- Creator: CorelDRAW 2021.5 -->
<svg xmlns="http://www.w3.org/2000/svg" xml:space="preserve" width="6.2784mm" height="6.3257mm" version="1.1" style="shape-rendering:geometricPrecision; text-rendering:geometricPrecision; image-rendering:optimizeQuality; fill-rule:evenodd; clip-rule:evenodd"
viewBox="0 0 50.93 51.31"
 xmlns:xlink="http://www.w3.org/1999/xlink"
 xmlns:xodm="http://www.corel.com/coreldraw/odm/2003">
 <defs>
  <style type="text/css">
   <![CDATA[
    .fil0 {fill:white}
   ]]>
  </style>
 </defs>
 <g id="Layer_x0020_1">
  <metadata id="CorelCorpID_0Corel-Layer"/>
  <g id="_2525865139600">
   <path class="fil0" d="M23.72 0.07c-3.25,0.33 -5.99,1.11 -8.85,2.51 -2.62,1.28 -4.74,2.84 -6.85,5 -3.76,3.86 -6.06,8.53 -6.86,13.93 -0.2,1.36 -0.28,4.24 -0.14,5.61 0.33,3.47 1.14,6.25 2.7,9.32l0.78 1.51 -2.26 6.68 -2.25 6.68 1.15 -0.36c0.64,-0.2 3.75,-1.2 6.92,-2.21l5.75 -1.85 1.34 0.65c5.54,2.66 11.81,3.17 17.75,1.47 4.09,-1.17 7.61,-3.27 10.71,-6.37 3.98,-3.99 6.36,-8.78 7.15,-14.42 0.23,-1.62 0.22,-4.83 0,-6.47 -0.78,-5.61 -3.18,-10.45 -7.15,-14.42 -3.88,-3.87 -8.61,-6.27 -14.01,-7.08 -1.01,-0.15 -2.7,-0.24 -4.1,-0.25l-0.14 0c-0.65,0 -1.23,0.02 -1.65,0.07zm5.33 4.32c3.35,0.52 6.59,1.87 9.32,3.9 3.73,2.76 6.54,6.91 7.7,11.39 0.54,2.05 0.67,3.1 0.67,5.31 0,3.36 -0.58,5.98 -1.98,8.9 -2.1,4.39 -5.35,7.68 -9.7,9.81 -6.2,3.04 -13.45,2.81 -19.45,-0.64l-1.16 -0.67 -3.91 1.26c-2.15,0.68 -3.94,1.23 -3.97,1.2 -0.03,-0.03 0.52,-1.76 1.21,-3.84l1.27 -3.79 -0.52 -0.81c-1.58,-2.42 -2.62,-5.05 -3.14,-7.95 -0.19,-1.07 -0.21,-1.53 -0.21,-3.51 0.01,-2.52 0.13,-3.56 0.71,-5.6 2.32,-8.19 9.4,-14.14 17.97,-15.08 1.09,-0.12 4.02,-0.05 5.19,0.13z"/>
   <path class="fil0" d="M17 12.85c-0.56,0.14 -0.88,0.38 -1.68,1.25 -1.21,1.29 -1.84,2.95 -1.84,4.84 0,2.24 0.69,4.03 2.79,7.19 1.47,2.23 2.41,3.39 4.06,5.04 2.67,2.67 4.73,3.93 9,5.51 2.17,0.81 3.04,0.94 4.55,0.7 1.35,-0.22 3.09,-1.13 3.92,-2.04 0.63,-0.69 1.09,-2.08 1.09,-3.24 0,-0.52 -0.04,-0.66 -0.21,-0.82 -0.27,-0.25 -4.58,-2.55 -5.34,-2.86 -0.82,-0.33 -0.95,-0.27 -1.9,0.87 -1.37,1.65 -1.9,2.16 -2.25,2.16 -0.41,0 -2.25,-0.91 -3.44,-1.7 -1.92,-1.28 -3.33,-2.71 -4.73,-4.81 -0.98,-1.47 -1.21,-1.93 -1.12,-2.28 0.04,-0.14 0.43,-0.64 0.87,-1.1 0.88,-0.91 1.38,-1.69 1.38,-2.11 0,-0.35 -1.94,-5.61 -2.24,-6.08 -0.14,-0.21 -0.35,-0.38 -0.54,-0.44 -0.5,-0.15 -1.88,-0.2 -2.37,-0.08z"/>
  </g>
 </g>
</svg>
