<?xml version="1.0" encoding="UTF-8"?>
<!DOCTYPE svg PUBLIC "-//W3C//DTD SVG 1.1//EN" "http://www.w3.org/Graphics/SVG/1.1/DTD/svg11.dtd">
<!-- Creator: CorelDRAW 2021.5 -->
<svg xmlns="http://www.w3.org/2000/svg" xml:space="preserve" width="25.1837mm" height="11.1801mm" version="1.1" style="shape-rendering:geometricPrecision; text-rendering:geometricPrecision; image-rendering:optimizeQuality; fill-rule:evenodd; clip-rule:evenodd"
viewBox="0 0 1076.76 478.02"
 xmlns:xlink="http://www.w3.org/1999/xlink"
 xmlns:xodm="http://www.corel.com/coreldraw/odm/2003">
 <defs>
  <style type="text/css">
   <![CDATA[
    .fil1 {fill:black}
    .fil0 {fill:#FAD700}
   ]]>
  </style>
 </defs>
 <g id="Layer_x0020_1">
  <metadata id="CorelCorpID_0Corel-Layer"/>
  <g id="_2436015110800">
   <path class="fil0" d="M210.78 412.29l-0.06 46.78 -53.3 4.91c-4.42,-4.57 -42.43,-41.06 -43.07,-42.67l52.86 -4.82 0.12 -47.26c24.48,-3.02 45.32,-1.4 66.57,-17.31 2.06,-1.54 5.15,-4.5 6.69,-5.35 0.07,4.6 -0.52,42.16 0.41,44.32 0.38,0.89 10.95,12.04 12.71,15.46 -6.27,1.94 -13.38,2.86 -21.08,3.56 -3.72,0.34 -19.05,1.27 -21.84,2.37zm865.99 -17.02l0 0c-7.27,0 -14.28,1.41 -21.44,1.81 -19.23,1.06 -44.59,5.35 -63.22,5.35 -1.2,0 -13.54,-13.79 -16.1,-15.5l0 17.29 -50.78 4.67c-8.46,0.89 -16.9,0.97 -25.29,2.14 -8.47,1.18 -16.53,1.5 -25.26,2.17 -8.44,0.65 -16.7,1.71 -25.64,2.39 -8.26,0.63 -16.83,2 -25.08,2.35 -17.35,0.75 -33.4,4.17 -50.68,4.17 -1.38,0 -12.27,-12.07 -14.81,-14.4 -2.95,-2.71 -5.85,-6.11 -9.04,-8.25l0 24.44c-3.38,1.62 -34.91,4.05 -38.75,4.17 -6.76,0.21 -13.02,1.51 -19.67,1.8 -2.39,0.1 -7.32,0.38 -10,0.77 -4.75,0.7 -3.88,0.66 -6.85,-2.41l-8.04 -8.06c-0.65,-0.63 -0.9,-0.8 -1.56,-1.42 -0.09,-0.08 -0.22,-0.2 -0.31,-0.29l-5.21 -4.92c-6.52,-6.09 -22.86,-24 -27.65,-27.21l-14.9 50.08 -48.04 4.43c-4.19,0.59 -7.76,0.55 -12.01,1.1 -2.91,0.38 -8.85,0.89 -12.09,1.02l-72.16 6.54c-2.39,0.16 -10.54,1.35 -11.86,1.17 -4.92,-0.64 -15.92,-17.11 -20.92,-18.44l0 20.27 -36.2 3.15c-4.93,0.63 -12.56,1.54 -18.06,1.62 -5.77,0.08 -12.25,1.46 -17.9,1.77l-72.13 6.58c-2.45,-0.63 -13.95,-13.64 -17.14,-16.84l-10.1 -9.57c-24.08,-21.84 -9.75,-17.68 -30.58,-15.9 -3.74,0.32 -8.72,1.18 -12.54,1.18l0 47.1c-1.68,0.03 -5.96,0.48 -8.18,0.76 -13.4,1.71 -25.95,1.89 -39.34,3.58 -4.26,0.54 -10.61,1.24 -15.11,1.58 -11.79,0.9 -8.73,1.52 -17.39,-6.98l-8.94 -8.35c-8.2,-7.2 -21.05,-21.11 -29.69,-29.33 -4.32,-4.11 -8.03,-9.25 -12.05,-13.58 -1.58,-1.7 -2.34,-2.86 -3.87,-4.47 -1.62,-1.7 -2.6,-2.98 -4.22,-4.72 -1.96,-2.11 -1.33,-3.26 -1.3,-7.04l0 -101.96c0,-7.36 1.26,-11.74 -1.91,-14.79l-25 -24.49c-13.43,-12.37 -22.25,-23.02 -33.77,-35.99 -1.58,-1.77 -2.32,-2.48 -3.91,-4.43 -1.48,-1.83 -2.16,-2.93 -3.55,-4.79 -8.95,-11.95 -16.53,-30.78 -16.53,-51.44 0,-15.94 1.58,-23.34 5.96,-38.16 7.05,-23.91 29.72,-47.33 52.63,-57.07 27.83,-11.83 58.19,-12.77 85.69,0.43l0 -10.14 55.36 -4.26c5.01,-0.55 13.39,-0.63 17.97,-1.7l12.66 12.48c0.71,0.65 0.86,0.74 1.65,1.24l0 -14.9 27.93 -1.88c12.51,-1.32 34.02,-3.48 45.41,-3.48 0.63,0 8.99,8.97 10.73,10.13 1.78,-0.47 4.29,-2.78 6.21,-3.93 24.25,-14.5 55.68,-18.86 83.11,-12.06l19.19 5.85 0 -9.54 103.78 -8.31c7.11,-0.55 13.69,-0.58 20.74,-1.32 13.05,-1.37 27.87,-2.37 41.23,-3.48 1.53,0.4 12.05,11.22 12.52,11.92 4.38,-2.93 8.73,-6.14 13.51,-8.56 27.58,-13.93 58.41,-16.15 87.18,-4.49 14.96,6.07 17.07,11.43 25.71,17.21l0 -26.83c11.36,0 44.81,-4.44 57.83,-4.78l22.27 -1.66c2.72,-0.22 1.34,-0.28 2.98,0.84 6.18,4.2 12.09,13.19 17.68,16.93 0.78,-3.33 1.98,-6.83 3.06,-10.05 0.89,-2.65 2.25,-6.82 2.9,-9.62l9.97 -0.76c9.86,-1.31 19.2,-1.19 29.29,-2.31 5.58,-0.62 13.43,-1.45 19.17,-1.7 27.12,-1.16 17.18,-5.26 36.21,13.86 1.45,1.46 2.49,2.34 3.96,3.8l38.07 38.83c1.48,1.56 1.79,2.36 3.28,3.88 2,2.06 6.32,6.2 6.67,8.82 0.73,5.31 0.04,98.9 0.04,106.69 5.87,3.11 19.1,17.61 24.59,23.1l11.87 11.38c0.09,0.09 0.23,0.2 0.32,0.28 5.39,4.91 13.22,12.25 17.72,18.05 3.47,4.47 7.65,8.3 11.08,12.78 1.79,2.34 3.54,3.84 5.46,6.46 13.18,17.97 15.79,42.31 5.47,62.89 -6.67,13.31 -10.41,14.25 -13.91,19.48 1.47,6.29 29.91,56.56 31.6,63.79zm-437.5 -21.19l52.59 -4.73 0.13 -99.29c-0.02,-2.36 -0.41,-5.02 0.82,-6.96l26.45 -2.61 -0.03 83.54c-0.02,3.94 1.36,5.66 5.2,9.48 2.39,2.38 8.51,10.57 11.06,12.13l-0.09 46.32c-4.42,0.97 -12.04,1.13 -16.47,1.58l-32.88 2.97c-5.12,0.53 -4.37,-0.29 -10.85,-6.61 -9.65,-9.41 -17.75,-16.64 -27.03,-26.63 -3,-3.23 -6.56,-5.56 -8.9,-9.19zm-494.67 -29.18l-0.07 47.09 -38.99 3.5 0 -137.76 36.35 -3.31c21.57,-1.89 51.38,-7.32 69.79,2.47 9.41,5.01 16.24,11.43 19.6,20.4 4.14,11.06 2.98,23.37 -1.69,32.7 -9.15,18.27 -28.35,28.6 -48.61,31.27 -6.94,0.91 -33.54,2.77 -36.38,3.64zm224.83 -52.96l9.34 -0.78 25.42 82.1c1.73,5.41 11.27,13.42 15.92,20.41l57.51 -5.06c-1.46,-9.76 -6.81,2.58 1.59,-24.52 2.44,-7.89 4.45,-17.06 7.44,-24.73 1.28,2.27 3.12,9.19 4.11,12.43 2.3,7.54 2.98,5.4 -0.26,12.34 -2.63,5.62 -1.3,5.21 5.23,12.4l3.94 4.41c5.46,5.97 2.25,5.66 16.07,4.27 10.88,-1.09 40.48,-2.89 46.8,-4.52 5.74,-18.7 10.72,-36.16 16.09,-54.27 0.94,-3.16 14.85,-52.9 16.65,-54.35 1.61,-1.06 23.5,-2.72 27.41,-2.8 1.22,8.68 -0.77,69.51 0.13,84.94 0.18,3.09 0.18,2.49 2.16,3.87 -0.29,3.78 -17.53,62.12 -19.34,65.63 -17.45,1.31 -33.87,3.42 -50.42,4.57 -9.11,0.64 -5.43,2.94 -17.56,-9.02 -3.34,-3.3 -10.99,-12.19 -14.2,-13.93 -1.8,2.87 -3.22,9.73 -4.36,13.61 -2.79,9.54 0.74,5.98 1.77,12.42l-46.43 4.17c-8.71,0.69 -9.41,2.11 -13.52,-2.15 -5.78,-5.99 -11.14,-10.62 -17.07,-16.89l-17.83 -16.84 -0.02 40.06c-3.28,0.89 -43.36,4.1 -50.54,4.72l-64.24 5.75c-15.79,1.46 -9.62,2.42 -19.32,-6.95l-35.26 -34.53 125.71 -11.5 0.24 -44.25c-0.24,-3.15 -3.88,-6.21 -5.99,-8.72 -2.92,-3.48 -1.89,-7.78 -1.89,-13.32l0.04 -29.86c-0.06,-3.09 -0.83,-3.16 -2.42,-5.01 -1.17,-1.36 -2,-2.7 -2.94,-4.07zm-82.29 -19.14l-0.18 21.92 64.95 -5.92 -0.01 31.35 -64.93 5.87 -0.03 21.59 72.8 -6.32 0 31.45 -111.51 9.93c-0.83,-10.55 -0.12,-54.92 -0.12,-69.09l-0.04 -64.43c-0.01,-2.45 -0.4,-2.58 0.8,-4.06l110.86 -10.18c0.01,9.39 0.25,18.89 0.09,28.07 -0.08,4.61 1.19,3.13 -9.76,4.19l-62.92 5.62zm-228.9 -30.44c2.74,1.09 5.95,3.54 8.59,4.97 10.62,5.74 18.69,7.31 31.16,8.84l0.2 25.49c-1.22,-1.26 -3.4,-2.77 -4.84,-4.19 -1.89,-1.86 -3.35,-3.11 -5.19,-4.93l-29.92 -30.17zm610.99 -3.86l-0.03 106.35 -38.81 3.46 -0.02 -106.32 -45.03 4 0.02 -31.02c3.44,-1.06 125.93,-12.02 128.72,-11.57l0 30.78 -44.85 4.32zm290.37 26.2l12.45 25.4c4.1,8.36 9.33,17.21 13.16,25.87l-42.77 4.33c-1.53,-5.07 -20.91,-40.27 -22.21,-45.1l-24.13 1.95 -0.1 47.34 -38.81 3.46 0 -137.53c5.16,-1.21 46.66,-4.4 55.66,-5.19 21.25,-1.88 45.23,-4.4 60.83,11.47 8.65,8.79 13.34,18.6 11.42,33 -1.52,11.42 -8.11,21.82 -16.59,28.69 -4.77,3.86 -5.94,4.03 -8.9,6.31zm-193.78 -34.9l-0.17 21.67 64.95 -5.68 -0.02 31.33 -64.72 5.84 -0.3 21.66 72.84 -6.34 -0.02 31.31 -111.77 10.1 -0.01 -137.79 112.03 -10.03 -0.26 31.43 -72.54 6.49zm-224.32 126.26l-40.45 3.88 -25.5 -79.39 -24.9 84.01 -39.84 3.5c-2.12,-2.98 -9.39,-28.99 -10.95,-33.36 -3.67,-10.24 -7.07,-22.76 -10.45,-33.63 -2.41,-7.77 -20.67,-63.92 -20.58,-66.95l40.16 -3.63c4.92,12.26 22.01,75.12 25.46,79.74l24.67 -84.14c5.08,-0.92 11.57,-1.2 16.87,-1.62l15.74 -1.15c0.16,0.02 0.38,0.09 0.51,0.12 0.13,0.02 0.34,0.06 0.5,0.13l24.59 78.78c1.4,-1.74 16.55,-53.53 19.12,-62.82 1.58,-5.71 4.05,-15.43 6.4,-21.02l40.05 -3.63c-0.79,5.59 -3.36,12.68 -5.05,18.33 -1.71,5.75 -3.63,11.69 -5.19,17.51 -3.01,11.17 -6.75,23.15 -10.29,34.94 -6.74,22.46 -13.8,46.76 -20.89,70.4zm447.93 -153.67c1.79,0.73 0.62,-0.1 2.27,1.34l4.86 5.25c7.72,7.53 26.85,25.18 32.85,32.74 1.36,1.71 1.22,1.72 2.99,3.56l9.4 10.89c18.77,25.53 9.03,56.77 -13.99,71.56l20.8 41.47c2.38,4.77 5.27,9.43 6.94,14.23 -9.35,0.25 -40.02,3.29 -52.67,4.56 -3.77,0.38 -4.84,1.12 -7.26,-0.97 -5.49,-4.72 -10.35,-10.77 -16.26,-16.55 -5.68,-5.55 -11.17,-10.68 -16.78,-16.08l-0.2 37.22c-9.54,1.46 -19.97,1.81 -29.58,2.69l-21.85 1.97c-3.23,-0.01 -3.09,-1.3 -5.28,-3.07l-1.19 3.52 -125.8 11.44c-3.82,-3.06 -7.34,-7.2 -10.78,-10.48l-21.49 -20.83c-2.96,-3.5 -9.51,-8.58 -10.48,-11.6 15.69,-0.4 44.4,-4.16 62.5,-5.48 7.31,-0.53 60.09,-4.99 62.81,-5.97 0.01,-0.42 0,-1.78 0.09,-2.08 0.53,-1.9 -0.11,-0.82 1.06,-2.04 0.96,1.97 1.54,2.36 2.55,4.01l53.51 -4.71c1.51,-3.66 0.46,-39.97 0.56,-47.16l6.1 -0.63c1.34,3.33 11.72,24.61 14.38,28.09 0.88,1.15 0.91,0.96 2,2.16l9.86 11.62c3,3.97 5.58,2.4 12.84,1.83 15.55,-1.23 32.91,-3.56 47.94,-4.23 -0.87,-3.7 -26.14,-50.75 -27.56,-55.57 2.64,-1.65 6.34,-5.25 8.33,-7.14 1.92,-1.83 4.87,-5.52 6.9,-8.55 11.91,-17.74 11.68,-41.9 -2.96,-57.7l-5.52 -6.39c-0.2,-0.27 -1.8,-2.86 -1.87,-2.93zm-823.96 -122.78l39.82 -3.12c0.01,22.25 0.01,44.42 0.01,66.58 0,10.11 -0.73,20.98 3.4,29.25 7.79,15.63 30.71,16.34 40.56,-2.96 4.16,-8.15 3.44,-19.53 3.44,-29.87 0,-22.29 0,-44.58 0,-66.88l40.45 -3.06c-0.66,5.49 -0.2,43.72 -0.2,52.65 0,15.81 1.34,35.09 -3.04,49.6 -17.88,59.19 -102.97,67.53 -121.77,9.41 -4.36,-13.48 -3.07,-34.37 -3.07,-49.46 0,-7.73 -0.88,-48.04 0.41,-52.13zm567.68 33.65c-2.66,21.15 -8.79,36.71 -23.49,50.82 -13.95,13.39 -31.43,21.16 -51.97,22.65 -45.22,3.26 -77.39,-31.18 -72.81,-76.4 3.03,-29.93 20.37,-54.23 45.58,-65.47 30.4,-13.55 68.02,-9.53 89.08,17.27 10.33,13.13 15.76,34.14 13.62,51.13zm-598.38 17.21c-1.97,-0.53 -0.55,0.03 -2.27,-1.21 -6.26,-4.48 -7.98,-6.85 -17.66,-9.78 -22.52,-6.82 -51.16,6.37 -51.33,39.1 -0.2,37.75 36.48,44.55 62.29,24.98 3.04,-2.3 6.34,-5.89 8.97,-7.27 0.11,0.12 0.26,0.15 0.31,0.36l17.23 24.26c-4.27,7.19 -16.29,16.7 -25.12,21.03 -12.25,6.02 -23.46,9.14 -39.52,9.14 -19.9,0 -37.08,-7.57 -48.82,-20.1 -12.33,-13.16 -19.04,-33.3 -17.93,-51.22 1.23,-19.92 6.73,-36.04 18.96,-50.16 5.08,-5.85 5.15,-6.31 11.9,-11.39 19.86,-14.93 48.47,-20.88 72.6,-13.34 10.67,3.33 23.4,11.01 27.98,18.09l-17.59 27.5zm705.73 38.56l-27.82 2.21c-1.24,-1.81 -4.77,-13.16 -5.68,-16l-16.47 -48.17 -0.04 65.72 -40.1 3.43 -0.01 -142.57 51.09 -4.05 24.92 76.18c1.33,-1.54 11.15,-34.33 12.69,-39.4 2.07,-6.81 4.15,-13.31 6.25,-19.99 1.11,-3.52 4.64,-19.8 7.41,-20.6l24.15 -2.1c8.43,-0.7 17.42,-1.74 25.54,-1.93l0.17 142.9c-3.66,-1.03 -33.66,2.34 -40.1,2.63l-0.01 -66.78c-3.34,10.35 -7.41,22.94 -10.85,33.74 -1.83,5.75 -3.73,11.92 -5.39,17.27 -1.36,4.4 -3.69,13.73 -5.76,17.5zm-308.29 -85.82l-0.18 109.95 -40.3 3.36 -0.01 -109.82 -46.47 3.39 0.03 -32.32 133.25 -10.6c0.01,7.93 0.94,26.3 -0.35,32.85 -3.55,-0.86 -38.97,2.69 -45.96,3.19zm-116.38 23.19c-4.01,-1.18 -12.67,-9.58 -32.41,-10.21 -6.44,-0.21 -14.01,0.7 -19.02,2.3 -3.53,1.12 -12.73,4.31 -10.27,10.09 4.26,9.99 46.7,3.79 68.17,17.03 8.5,5.25 15.44,12.95 16.2,26.4 1.11,19.44 -7.28,32.73 -21.28,42.79 -22.75,16.37 -59.48,18.37 -86.31,8.55 -7.67,-2.81 -12.78,-5.42 -18.9,-9.74 -1.92,-1.35 -3.14,-2.82 -5.22,-4.22 1.22,-3.9 15.91,-25.9 17.57,-28.16 2.05,0.59 6.4,3.91 9,5.07 17.03,7.61 44.94,9.86 59.14,0.2 1.99,-1.36 5.76,-5.98 2.04,-9.55 -10.81,-10.34 -83.37,4.39 -83.31,-48.46 0.06,-50.36 86.6,-63.83 121.67,-29.81 -0.74,2.47 -15.49,23.91 -17.07,27.71zm-198.06 -32.37c2.45,2.02 4.31,3.86 6.69,6.2 3.76,3.7 19.19,19.36 20.85,20.17 0.05,15.42 0,30.84 0,46.26 0,8.22 -0.08,20.82 -7.99,26.25 -2.69,1.84 -5,3.12 -9.19,3.33l0 -84.45c0.04,-4.6 0.62,-5.38 -3.95,-10.11 -1.86,-1.92 -1.88,-2.03 -3.3,-3.86 -0.36,-0.47 -2.83,-3.57 -3.13,-3.79zm85.25 -9.45l10 9.36c1.98,1.86 2.7,1.96 2.15,3.89 -1.38,-0.06 -2.25,-0.35 -3.68,-2.36 -0.53,-0.75 -0.54,-1.09 -1.13,-1.86 -0.71,-0.93 -1.07,-0.98 -1.78,-1.81l-5.56 -7.23zm424.52 -4.72c2.18,0.61 9.53,8.91 12.48,11.59 1.33,1.2 4.07,2.17 2.75,6.43l-15.23 -18.02zm-125.84 -3.19c-2.52,-0.78 -2.31,-0.94 -3.44,-2.66l-7.98 -9.65c1.95,0.74 5.24,3.87 6.38,5.28 2.04,2.51 0.93,0.89 3.19,2.78 1.75,1.47 2.3,1.55 1.85,4.24zm229.78 9.87c-1.1,-1.06 -0.22,0.27 -1.29,-1.74l-3.27 -9.86c-4.12,-12.85 -2.9,-12.59 -10.13,-20.9 -2.3,-2.65 -4.11,-5.78 -6.79,-8.24l6.61 6.03c4.49,3.77 9.14,9.44 13.02,13.22 2.23,2.18 4.19,3.99 6.43,6.24l-4.57 15.26zm81.79 -49.55c0.62,1.8 24.08,23.45 27.69,27.02 2.41,2.38 4.6,4.37 6.91,6.81 1.24,1.31 2.11,2.57 3.35,3.8l16.73 18.46c2.18,3.28 1.09,47.28 1.09,54.5 0,18.76 0,37.52 0,56.28 -6.5,-2.09 -8.14,-4.5 -19,-6.5 -7.14,-1.31 -17.25,-2 -24.45,-0.67 -0.62,-42.03 -0.03,-86.51 -0.03,-129 0,-3.58 -0.02,-7.16 0.01,-10.74 0.05,-5.53 0.58,-5.05 -2.68,-8.26 -1.93,-1.91 -8.55,-10.95 -9.63,-11.69z"/>
   <path class="fil1" d="M369.42 291.95c0.94,1.37 1.77,2.71 2.94,4.07 1.58,1.85 2.36,1.92 2.42,5.01l-0.04 29.86c0,5.54 -1.03,9.84 1.89,13.32 2.1,2.51 5.75,5.57 5.99,8.72l-0.24 44.25 -125.71 11.5 35.26 34.53c9.7,9.37 3.52,8.41 19.32,6.95l64.24 -5.75c7.18,-0.62 47.26,-3.83 50.54,-4.72l0.02 -40.06 17.83 16.84c5.93,6.27 11.3,10.9 17.07,16.89 4.11,4.26 4.81,2.83 13.52,2.15l46.43 -4.17c-1.04,-6.43 -4.56,-2.88 -1.77,-12.42 1.14,-3.88 2.57,-10.74 4.36,-13.61 3.21,1.75 10.85,10.63 14.2,13.93 12.13,11.96 8.45,9.66 17.56,9.02 16.55,-1.15 32.97,-3.26 50.42,-4.57 1.81,-3.51 19.05,-61.84 19.34,-65.63 -1.98,-1.38 -1.98,-0.77 -2.16,-3.87 -0.9,-15.42 1.09,-76.25 -0.13,-84.94 -3.91,0.09 -25.8,1.74 -27.41,2.8 -1.8,1.45 -15.72,51.2 -16.65,54.35 -5.37,18.11 -10.35,35.57 -16.09,54.27 -6.32,1.62 -35.92,3.42 -46.8,4.52 -13.82,1.39 -10.62,1.7 -16.07,-4.27l-3.94 -4.41c-6.53,-7.19 -7.85,-6.79 -5.23,-12.4 3.24,-6.93 2.56,-4.79 0.26,-12.34 -0.99,-3.25 -2.83,-10.17 -4.11,-12.43 -3,7.67 -5,16.84 -7.44,24.73 -8.4,27.11 -3.05,14.77 -1.59,24.52l-57.51 5.06c-4.66,-6.99 -14.2,-15 -15.92,-20.41l-25.42 -82.1 -9.34 0.78z"/>
   <path class="fil1" d="M840.47 169.03c2.07,-3.77 4.4,-13.11 5.76,-17.5 1.66,-5.35 3.55,-11.52 5.39,-17.27 3.44,-10.8 7.5,-23.39 10.85,-33.74l0.01 66.78c6.44,-0.29 36.44,-3.66 40.1,-2.63l-0.17 -142.9c-8.12,0.19 -17.11,1.23 -25.54,1.93l-24.15 2.1c-2.77,0.81 -6.31,17.09 -7.41,20.6 -2.1,6.68 -4.19,13.18 -6.25,19.99 -1.54,5.08 -11.36,37.86 -12.69,39.4l-24.92 -76.18 -51.09 4.05 0.01 142.57 40.1 -3.43 0.04 -65.72 16.47 48.17c0.91,2.83 4.44,14.19 5.68,16l27.82 -2.21z"/>
   <path class="fil1" d="M989.41 202.4c0.07,0.07 1.68,2.66 1.87,2.93l5.52 6.39c14.64,15.8 14.87,39.96 2.96,57.7 -2.03,3.02 -4.98,6.72 -6.9,8.55 -2,1.89 -5.69,5.49 -8.33,7.14 1.42,4.82 26.69,51.87 27.56,55.57 -15.03,0.67 -32.39,3 -47.94,4.23 -7.26,0.57 -9.83,2.14 -12.84,-1.83l-9.86 -11.62c-1.09,-1.2 -1.12,-1.01 -2,-2.16 -2.67,-3.48 -13.04,-24.76 -14.38,-28.09l-6.1 0.63c-0.1,7.2 0.95,43.51 -0.56,47.16l-53.51 4.71c-1,-1.66 -1.59,-2.05 -2.55,-4.01 -1.17,1.22 -0.53,0.14 -1.06,2.04 -0.09,0.3 -0.08,1.66 -0.09,2.08 -2.72,0.98 -55.5,5.44 -62.81,5.97 -18.1,1.32 -46.81,5.08 -62.5,5.48 0.97,3.02 7.52,8.1 10.48,11.6l21.49 20.83c3.44,3.28 6.96,7.42 10.78,10.48l125.8 -11.44 1.19 -3.52c2.19,1.77 2.05,3.06 5.28,3.07l21.85 -1.97c9.61,-0.89 20.04,-1.24 29.58,-2.69l0.2 -37.22c5.61,5.4 11.1,10.53 16.78,16.08 5.91,5.78 10.77,11.82 16.26,16.55 2.42,2.1 3.49,1.35 7.26,0.97 12.65,-1.27 43.32,-4.31 52.67,-4.56 -1.67,-4.81 -4.56,-9.46 -6.94,-14.23l-20.8 -41.47c23.02,-14.79 32.76,-46.03 13.99,-71.56l-9.4 -10.89c-1.77,-1.83 -1.63,-1.85 -2.99,-3.56 -6,-7.56 -25.13,-25.21 -32.85,-32.74l-4.86 -5.25c-1.65,-1.45 -0.48,-0.61 -2.27,-1.34z"/>
   <path class="fil1" d="M541.48 356.07c7.1,-23.64 14.16,-47.94 20.89,-70.4 3.54,-11.8 7.28,-23.77 10.29,-34.94 1.57,-5.82 3.48,-11.76 5.19,-17.51 1.68,-5.66 4.25,-12.74 5.05,-18.33l-40.05 3.63c-2.35,5.59 -4.82,15.31 -6.4,21.02 -2.57,9.29 -17.72,61.07 -19.12,62.82l-24.59 -78.78c-0.16,-0.06 -0.37,-0.11 -0.5,-0.13 -0.13,-0.03 -0.35,-0.09 -0.51,-0.12l-15.74 1.15c-5.3,0.41 -11.79,0.69 -16.87,1.62l-24.67 84.14c-3.45,-4.62 -20.54,-67.48 -25.46,-79.74l-40.16 3.63c-0.09,3.03 18.17,59.18 20.58,66.95 3.38,10.87 6.77,23.39 10.45,33.63 1.56,4.37 8.83,30.39 10.95,33.36l39.84 -3.5 24.9 -84.01 25.5 79.39 40.45 -3.88z"/>
   <path class="fil1" d="M656.43 150.1c-9.8,0 -18.03,-3.95 -23.2,-11.83 -4.89,-7.45 -6.5,-17.9 -5.85,-28.6 2.76,-45.57 66.88,-51.6 63.33,4.77 -1.21,19.38 -13.93,35.66 -34.28,35.66zm76.69 -36.83c2.14,-16.99 -3.29,-38 -13.62,-51.13 -21.07,-26.8 -58.69,-30.82 -89.08,-17.27 -25.21,11.24 -42.55,35.54 -45.58,65.47 -4.58,45.22 27.59,79.66 72.81,76.4 20.54,-1.48 38.03,-9.26 51.97,-22.65 14.7,-14.11 20.83,-29.67 23.49,-50.82z"/>
   <path class="fil1" d="M896 245.7c0,-5.02 -0.73,-24.41 0.48,-27.73 10.03,-0.54 19.29,-1.62 29.21,-2.56 9.92,-0.94 19.36,2.36 18.46,13.55 -0.81,10.03 -10.08,13.5 -18.28,14.16 -9.1,0.73 -20.69,2.61 -29.87,2.58zm63.58 19.01c2.95,-2.28 4.13,-2.45 8.9,-6.31 8.49,-6.87 15.07,-17.27 16.59,-28.69 1.92,-14.4 -2.77,-24.21 -11.42,-33 -15.6,-15.86 -39.58,-13.34 -60.83,-11.47 -8.99,0.8 -50.49,3.98 -55.66,5.19l0 137.53 38.81 -3.46 0.1 -47.34 24.13 -1.95c1.3,4.84 20.68,40.03 22.21,45.1l42.77 -4.33c-3.83,-8.67 -9.06,-17.51 -13.16,-25.87l-12.45 -25.4z"/>
   <path class="fil1" d="M415.8 106.4c1.58,-3.8 16.32,-25.24 17.07,-27.71 -35.07,-34.02 -121.62,-20.55 -121.67,29.81 -0.06,52.85 72.51,38.12 83.31,48.46 3.73,3.57 -0.05,8.2 -2.04,9.55 -14.2,9.66 -42.11,7.42 -59.14,-0.2 -2.6,-1.16 -6.94,-4.48 -9,-5.07 -1.66,2.25 -16.35,24.26 -17.57,28.16 2.07,1.41 3.3,2.87 5.22,4.22 6.12,4.32 11.24,6.93 18.9,9.74 26.83,9.82 63.56,7.82 86.31,-8.55 14,-10.07 22.38,-23.35 21.28,-42.79 -0.77,-13.45 -7.7,-21.15 -16.2,-26.4 -21.48,-13.25 -63.92,-7.04 -68.17,-17.03 -2.46,-5.78 6.74,-8.97 10.27,-10.09 5.01,-1.6 12.58,-2.5 19.02,-2.3 19.74,0.62 28.4,9.03 32.41,10.21z"/>
   <path class="fil1" d="M165.45 79.62c-1.28,4.09 -0.41,44.4 -0.41,52.13 0,15.1 -1.29,35.99 3.07,49.46 18.8,58.12 103.89,49.79 121.77,-9.41 4.38,-14.51 3.04,-33.79 3.04,-49.6 0,-8.93 -0.46,-47.16 0.2,-52.65l-40.45 3.06c0,22.29 0,44.59 0,66.88 0,10.34 0.72,21.72 -3.44,29.87 -9.85,19.3 -32.77,18.59 -40.56,2.96 -4.13,-8.28 -3.4,-19.15 -3.4,-29.25 0,-22.16 0,-44.32 -0.01,-66.58l-39.82 3.12z"/>
   <polygon class="fil1" points="838.35,223.31 838.6,191.89 726.58,201.92 726.59,339.7 838.36,329.6 838.38,298.29 765.55,304.63 765.85,282.97 830.56,277.12 830.58,245.79 765.63,251.48 765.8,229.81 "/>
   <path class="fil1" d="M350.05 267.19c10.95,-1.06 9.68,0.42 9.76,-4.19 0.17,-9.18 -0.07,-18.68 -0.09,-28.07l-110.86 10.18c-1.2,1.48 -0.81,1.61 -0.8,4.06l0.04 64.43c0,14.17 -0.7,58.54 0.12,69.09l111.51 -9.93 -0 -31.45 -72.8 6.32 0.03 -21.59 64.93 -5.87 0.01 -31.35 -64.95 5.92 0.18 -21.92 62.92 -5.62z"/>
   <path class="fil1" d="M144.59 285.89c3.26,-1.07 25.23,-2.75 29.49,-3 9.53,-0.55 19.98,2.1 18.47,14.01 -1.34,10.6 -10.74,12.98 -19.05,13.83 -8.27,0.85 -21.46,2.69 -28.97,2.51l0.06 -27.34zm0 59.03c2.84,-0.87 29.44,-2.73 36.38,-3.64 20.26,-2.66 39.46,-12.99 48.61,-31.27 4.67,-9.33 5.83,-21.64 1.69,-32.7 -3.36,-8.97 -10.19,-15.4 -19.6,-20.4 -18.41,-9.79 -48.22,-4.36 -69.79,-2.47l-36.35 3.31 0 137.76 38.99 -3.5 0.07 -47.09z"/>
   <path class="fil1" d="M152.34 102.98c-4.58,-7.08 -17.31,-14.76 -27.98,-18.09 -24.14,-7.54 -52.74,-1.59 -72.6,13.34 -6.76,5.08 -6.83,5.53 -11.9,11.39 -12.23,14.12 -17.73,30.24 -18.96,50.16 -1.11,17.92 5.6,38.06 17.93,51.22 11.74,12.53 28.92,20.1 48.82,20.1 16.06,0 27.27,-3.13 39.52,-9.14 8.83,-4.34 20.84,-13.84 25.12,-21.03l-17.23 -24.26c-0.05,-0.22 -0.2,-0.24 -0.31,-0.36 -2.64,1.38 -5.94,4.97 -8.97,7.27 -25.81,19.57 -62.48,12.76 -62.29,-24.98 0.18,-32.72 28.81,-45.92 51.33,-39.1 9.68,2.93 11.41,5.3 17.66,9.78 1.71,1.23 0.3,0.68 2.27,1.21l17.59 -27.5z"/>
   <path class="fil1" d="M532.18 83.21c6.99,-0.49 42.41,-4.05 45.96,-3.19 1.29,-6.55 0.36,-24.92 0.35,-32.85l-133.25 10.6 -0.03 32.32 46.47 -3.39 0.01 109.82 40.3 -3.36 0.18 -109.95z"/>
   <path class="fil1" d="M714.06 234.19l0 -30.78c-2.79,-0.45 -125.28,10.51 -128.72,11.57l-0.02 31.02 45.03 -4 0.02 106.32 38.81 -3.46 0.03 -106.35 44.85 -4.32z"/>
   <path class="fil1" d="M210.78 412.29c2.79,-1.1 18.12,-2.04 21.84,-2.37 7.7,-0.7 14.81,-1.62 21.08,-3.56 -1.75,-3.42 -12.33,-14.58 -12.71,-15.46 -0.92,-2.16 -0.33,-39.72 -0.41,-44.32 -1.54,0.85 -4.63,3.81 -6.69,5.35 -21.25,15.91 -42.08,14.28 -66.57,17.31l-0.12 47.26 -52.86 4.82c0.64,1.61 38.65,38.1 43.07,42.67l53.3 -4.91 0.06 -46.78z"/>
   <path class="fil1" d="M639.26 374.09c2.34,3.63 5.9,5.96 8.9,9.19 9.28,9.99 17.38,17.23 27.03,26.63 6.48,6.32 5.73,7.15 10.85,6.61l32.88 -2.97c4.43,-0.45 12.05,-0.61 16.47,-1.58l0.09 -46.32c-2.54,-1.56 -8.67,-9.75 -11.06,-12.13 -3.84,-3.82 -5.22,-5.54 -5.2,-9.48l0.03 -83.54 -26.45 2.61c-1.23,1.93 -0.83,4.6 -0.82,6.96l-0.13 99.29 -52.59 4.73z"/>
   <path class="fil1" d="M913.23 17c1.09,0.74 7.7,9.78 9.63,11.69 3.25,3.21 2.72,2.74 2.68,8.26 -0.03,3.57 -0.01,7.16 -0.01,10.74 0,42.49 -0.59,86.97 0.03,129 7.2,-1.33 17.3,-0.65 24.45,0.67 10.86,2 12.5,4.41 19,6.5 0,-18.76 0,-37.52 0,-56.28 0,-7.22 1.09,-51.22 -1.09,-54.5l-16.73 -18.46c-1.24,-1.24 -2.11,-2.49 -3.35,-3.8 -2.31,-2.44 -4.5,-4.43 -6.91,-6.81 -3.62,-3.57 -27.07,-25.23 -27.69,-27.02z"/>
   <path class="fil0" d="M656.43 150.1c20.36,0 33.07,-16.29 34.28,-35.66 3.54,-56.37 -60.58,-50.34 -63.33,-4.77 -0.65,10.71 0.96,21.15 5.85,28.6 5.17,7.87 13.4,11.83 23.2,11.83z"/>
   <path class="fil1" d="M217.74 74.03c0.3,0.23 2.77,3.32 3.13,3.79 1.42,1.83 1.43,1.94 3.3,3.86 4.57,4.73 3.98,5.52 3.95,10.11l-0 84.45c4.19,-0.22 6.5,-1.49 9.19,-3.33 7.91,-5.43 7.99,-18.03 7.99,-26.25 -0,-15.42 0.04,-30.84 -0,-46.26 -1.66,-0.81 -17.09,-16.47 -20.85,-20.17 -2.38,-2.34 -4.24,-4.18 -6.69,-6.2z"/>
   <path class="fil0" d="M144.59 285.89l-0.06 27.34c7.51,0.19 20.7,-1.66 28.97,-2.51 8.31,-0.85 17.71,-3.23 19.05,-13.83 1.5,-11.92 -8.94,-14.56 -18.47,-14.01 -4.27,0.25 -26.23,1.93 -29.49,3z"/>
   <path class="fil0" d="M896 245.7c9.18,0.03 20.76,-1.85 29.87,-2.58 8.2,-0.66 17.47,-4.12 18.28,-14.16 0.9,-11.19 -8.54,-14.49 -18.46,-13.55 -9.92,0.94 -19.18,2.02 -29.21,2.56 -1.21,3.32 -0.48,22.7 -0.48,27.73z"/>
   <path class="fil1" d="M88.15 272.55c1.85,1.83 3.31,3.07 5.19,4.93 1.43,1.42 3.61,2.93 4.84,4.19l-0.2 -25.49c-12.46,-1.53 -20.54,-3.1 -31.16,-8.84 -2.64,-1.43 -5.85,-3.87 -8.59,-4.97l29.92 30.17z"/>
   <path class="fil1" d="M831.44 66.55l4.57 -15.26c-2.24,-2.25 -4.2,-4.06 -6.43,-6.24 -3.88,-3.78 -8.52,-9.45 -13.02,-13.22l-6.61 -6.03c2.68,2.45 4.49,5.59 6.79,8.24 7.23,8.32 6.02,8.06 10.13,20.9l3.27 9.86c1.07,2.01 0.19,0.68 1.29,1.74z"/>
   <path class="fil1" d="M742.74 77.88c1.32,-4.26 -1.43,-5.23 -2.75,-6.43 -2.95,-2.68 -10.3,-10.98 -12.48,-11.59l15.23 18.02z"/>
   <path class="fil1" d="M601.66 56.68c0.46,-2.69 -0.1,-2.77 -1.85,-4.24 -2.26,-1.9 -1.15,-0.27 -3.19,-2.78 -1.14,-1.42 -4.43,-4.54 -6.38,-5.28l7.98 9.65c1.12,1.72 0.91,1.89 3.44,2.66z"/>
   <path class="fil1" d="M302.99 64.58l5.56 7.23c0.71,0.83 1.07,0.88 1.78,1.81 0.59,0.77 0.6,1.11 1.13,1.86 1.43,2.01 2.3,2.3 3.68,2.36 0.55,-1.93 -0.17,-2.03 -2.15,-3.89l-10 -9.36z"/>
  </g>
 </g>
</svg>
