<?xml version="1.0" encoding="UTF-8"?>
<!DOCTYPE svg PUBLIC "-//W3C//DTD SVG 1.1//EN" "http://www.w3.org/Graphics/SVG/1.1/DTD/svg11.dtd">
<!-- Creator: CorelDRAW 2021.5 -->
<svg xmlns="http://www.w3.org/2000/svg" xml:space="preserve" width="4.4924mm" height="4.4873mm" version="1.1" style="shape-rendering:geometricPrecision; text-rendering:geometricPrecision; image-rendering:optimizeQuality; fill-rule:evenodd; clip-rule:evenodd"
viewBox="0 0 3.32 3.32"
 xmlns:xlink="http://www.w3.org/1999/xlink"
 xmlns:xodm="http://www.corel.com/coreldraw/odm/2003">
 <defs>
  <style type="text/css">
   <![CDATA[
    .fil1 {fill:black}
    .fil0 {fill:#FAD700;fill-rule:nonzero}
   ]]>
  </style>
 </defs>
 <g id="Layer_x0020_1">
  <metadata id="CorelCorpID_0Corel-Layer"/>
  <g id="_2704112899264">
   <path class="fil0" d="M1.66 3.32c0.92,0 1.66,-0.74 1.66,-1.66 0,-0.92 -0.74,-1.66 -1.66,-1.66 -0.92,0 -1.66,0.74 -1.66,1.66 0,0.92 0.74,1.66 1.66,1.66z"/>
   <path class="fil1" d="M1.66 0.05c0.89,0 1.61,0.72 1.61,1.61 0,0.89 -0.72,1.61 -1.61,1.61 -0.89,0 -1.61,-0.72 -1.61,-1.61 0,-0.89 0.72,-1.61 1.61,-1.61zm0 0.14c0.81,0 1.47,0.66 1.47,1.47 0,0.81 -0.66,1.47 -1.47,1.47 -0.81,0 -1.47,-0.66 -1.47,-1.47 0,-0.81 0.66,-1.47 1.47,-1.47zm0 0.16c0.72,0 1.31,0.58 1.31,1.31 0,0.72 -0.59,1.31 -1.31,1.31 -0.72,0 -1.31,-0.58 -1.31,-1.31 0,-0.72 0.59,-1.31 1.31,-1.31zm0.64 2.13c-0,0 -0,0 -0.01,0l0.01 -0zm-0.85 -0.35c0,0 0,0 0.01,0 -0,-0 -0,-0 -0.01,-0zm0.01 0.01c0,0 0,0 0.01,0 -0,-0 -0,-0 -0.01,-0zm0.01 0.01c0,0 0,0 0.01,0 -0,-0 -0,-0 -0.01,-0zm0.02 0.01c0,0 0,0 0.01,0 -0,-0 -0,-0 -0.01,-0zm0.01 0c0,0 0,0 0.01,0 -0,-0 -0,-0 -0.01,-0zm0.04 0.02c0,0 0,0 0.01,0 -0,-0 -0,-0 -0.01,-0zm0.01 0c0,0 0,0 0.01,0 -0,-0 -0,-0 -0.01,-0zm0.01 0c0,0 0.01,0 0.01,0 -0,-0 -0.01,-0 -0.01,-0zm0.01 0c0,0 0.01,0 0.01,0 -0,-0 -0.01,-0 -0.01,-0zm0.02 0c0,0 0.01,0 0.01,0 -0,-0 -0.01,-0 -0.01,-0zm0.01 0c0,0 0,0 0.01,0 -0,-0 -0,-0 -0.01,-0zm0.04 0.01c0,0 0,0 0.01,0 -0,-0 -0,-0 -0.01,-0zm0.04 0c0,0 0.01,0 0.01,0 -0,0 -0.01,0 -0.01,-0zm0.67 0.25c-0,0 -0.01,0.01 -0.01,0.01 0,-0 0.01,-0.01 0.01,-0.01zm-0.06 0.05c-0,0 -0,0 -0.01,0.01 0,-0 0,-0 0.01,-0.01zm-0.04 0.03c-0.01,0 -0.01,0.01 -0.02,0.01 0.01,-0 0.01,-0.01 0.02,-0.01zm-0.04 0.03c-0,0 -0.01,0 -0.01,0.01 0,-0 0.01,-0 0.01,-0.01zm-0.06 0.03c-0,0 -0.01,0 -0.01,0 0,-0 0.01,-0 0.01,-0zm-0.01 0.01c-0.01,0.01 -0.03,0.01 -0.04,0.02 0.01,-0.01 0.03,-0.01 0.04,-0.02zm-0.04 0.02c-0,0 -0.01,0 -0.01,0 0,-0 0.01,-0 0.01,-0zm-0.01 0.01c-0.02,0.01 -0.04,0.02 -0.06,0.02 0.02,-0.01 0.04,-0.01 0.06,-0.02zm-0.07 0.03c-0.02,0.01 -0.03,0.01 -0.05,0.01 0.02,-0 0.03,-0.01 0.05,-0.01zm-0.05 0.02c-0,0 -0.01,0 -0.01,0 0,-0 0.01,-0 0.01,-0zm-0.01 0c-0.02,0.01 -0.04,0.01 -0.06,0.01 0.02,-0 0.04,-0.01 0.06,-0.01zm-0.06 0.01c-0,0 -0.01,0 -0.01,0 0,-0 0.01,-0 0.01,-0zm-0.2 -2.06c0.35,0 0.66,0.17 0.85,0.43l-0.41 0.32c-0.09,-0.14 -0.24,-0.24 -0.42,-0.24 -0.28,0 -0.5,0.24 -0.5,0.53 0,0.03 0,0.06 0.01,0.09l0 -0c-0.02,0.08 -0.04,0.16 -0.04,0.22 0,0.37 0.31,0.67 0.71,0.71 -0.06,0.01 -0.13,0.02 -0.19,0.02 -0.58,0 -1.04,-0.47 -1.04,-1.04 0,-0.57 0.47,-1.04 1.04,-1.04l0 0zm0.59 1.9c-0,0 -0,0 -0.01,0l0.01 -0zm-1.07 -0.62c-0,0.02 -0.01,0.05 -0.01,0.07 0,0.37 0.32,0.64 0.67,0.67 0.25,-0.05 0.47,-0.19 0.62,-0.39l-0.36 -0.25c-0.1,0.14 -0.26,0.23 -0.43,0.23 -0.22,0 -0.41,-0.14 -0.49,-0.34zm0.44 -0.44l0.12 0c0.11,0.01 0.11,0.18 0,0.19l-0.13 0 0 -0.19zm-0.16 -0.15l0.16 0 0.16 0c0.27,0.03 0.27,0.47 0.01,0.49l-0.17 0 0 0.22 -0.16 0c0,-0.18 -0,-0.37 -0,-0.55l0 -0.17zm0.01 0.01l0 0.11 0.11 -0.11 -0.11 0z"/>
  </g>
 </g>
</svg>
