<?xml version="1.0" encoding="UTF-8"?>
<!DOCTYPE svg PUBLIC "-//W3C//DTD SVG 1.1//EN" "http://www.w3.org/Graphics/SVG/1.1/DTD/svg11.dtd">
<!-- Creator: CorelDRAW 2021.5 -->
<svg xmlns="http://www.w3.org/2000/svg" xml:space="preserve" width="4.4428mm" height="4.4507mm" version="1.1" style="shape-rendering:geometricPrecision; text-rendering:geometricPrecision; image-rendering:optimizeQuality; fill-rule:evenodd; clip-rule:evenodd"
viewBox="0 0 15.6 15.63"
 xmlns:xlink="http://www.w3.org/1999/xlink"
 xmlns:xodm="http://www.corel.com/coreldraw/odm/2003">
 <defs>
  <style type="text/css">
   <![CDATA[
    .fil0 {fill:white}
   ]]>
  </style>
 </defs>
 <g id="Layer_x0020_1">
  <metadata id="CorelCorpID_0Corel-Layer"/>
  <g id="_2527117849104">
   <path class="fil0" d="M5.76 0.2c-2.76,0.69 -5,3.03 -5.61,5.84 -0.11,0.54 -0.15,1.78 -0.15,5.14l0 4.44 4.36 0c5.04,0 5.42,-0.04 7.03,-0.82 1.74,-0.84 3.21,-2.49 3.84,-4.32 0.39,-1.11 0.5,-3.42 0.23,-4.61 -0.16,-0.68 -0.79,-2.21 -0.89,-2.21 -0.03,0 -0.12,0.08 -0.22,0.17 -0.15,0.15 -0.13,0.24 0.18,0.91 0.88,1.92 0.82,4.43 -0.16,6.4 -0.94,1.85 -2.58,3.19 -4.62,3.72 -0.67,0.17 -1.22,0.19 -4.98,0.19l-4.23 0 0 -4.23c0,-4.7 0.04,-5.03 0.7,-6.37 0.71,-1.43 1.84,-2.55 3.29,-3.28 1.81,-0.93 4.49,-0.97 6.31,-0.12 0.68,0.32 0.72,0.33 0.91,0.15 0.2,-0.18 0.19,-0.19 -0.31,-0.44 -1.44,-0.75 -4.13,-1.03 -5.68,-0.6z"/>
   <path class="fil0" d="M9.76 3.88l-2.55 2.55 0.95 0.95c0.52,0.52 0.98,0.94 1.02,0.94 0.05,0 1.23,-1.14 2.61,-2.54l2.53 -2.54 -0.95 -0.96c-0.52,-0.53 -0.97,-0.96 -1,-0.96 -0.03,0 -1.21,1.15 -2.62,2.56z"/>
   <path class="fil0" d="M6.4 2.1c-2.7,0.71 -4.46,3.02 -4.47,5.92 0,0.82 0.01,0.84 0.25,0.81 0.23,-0.03 0.24,-0.1 0.3,-1.16 0.13,-2.07 1.01,-3.53 2.73,-4.53 1.19,-0.69 2.92,-0.87 4.19,-0.44 0.51,0.17 0.68,0.19 0.84,0.1 0.11,-0.08 0.19,-0.16 0.19,-0.2 0,-0.03 -0.28,-0.17 -0.61,-0.31 -0.77,-0.29 -2.59,-0.38 -3.42,-0.17z"/>
   <path class="fil0" d="M12.81 5.35c-0.1,0.12 -0.09,0.29 0.11,0.85 0.3,0.91 0.31,2.23 0.01,3.18 -0.71,2.27 -2.81,3.77 -5.31,3.77 -0.83,0 -0.84,0 -0.84,0.27 0,0.26 0.02,0.27 0.73,0.27 4.26,0 7.28,-3.87 5.77,-8.05 -0.18,-0.48 -0.27,-0.54 -0.47,-0.29z"/>
   <path class="fil0" d="M6.94 7.34c-0.2,0.23 -0.19,0.23 0.44,0.86 0.62,0.62 0.63,0.63 0.87,0.44l0.24 -0.19 -0.68 -0.67 -0.67 -0.67 -0.2 0.23z"/>
   <path class="fil0" d="M6.03 8.15c-0.67,0.48 -1.75,0.89 -2.82,1.05l-0.89 0.14 -0.06 0.69c-0.1,0.88 -0.43,2.31 -0.79,3.28 -0.15,0.41 -0.25,0.76 -0.23,0.79 0.02,0.02 0.53,-0.45 1.12,-1.07 1.03,-1.04 1.09,-1.12 1.02,-1.45 -0.05,-0.3 -0.01,-0.41 0.26,-0.69 0.18,-0.17 0.43,-0.32 0.56,-0.32 0.28,0 0.86,0.56 0.86,0.83 0,0.51 -0.65,0.97 -1.11,0.8 -0.24,-0.09 -0.38,0.02 -1.43,1.08 -0.65,0.65 -1.14,1.17 -1.11,1.17 0.03,0 0.56,-0.17 1.17,-0.38 1.21,-0.41 2.57,-0.7 3.24,-0.7 0.48,0 0.45,0.04 0.62,-1.1 0.15,-0.97 0.51,-1.93 0.97,-2.62 0.18,-0.27 0.33,-0.53 0.33,-0.57 0,-0.04 -0.28,-0.36 -0.61,-0.69l-0.62 -0.6 -0.48 0.35z"/>
  </g>
 </g>
</svg>
