<?xml version="1.0" encoding="UTF-8"?>
<!DOCTYPE svg PUBLIC "-//W3C//DTD SVG 1.1//EN" "http://www.w3.org/Graphics/SVG/1.1/DTD/svg11.dtd">
<!-- Creator: CorelDRAW 2021.5 -->
<svg xmlns="http://www.w3.org/2000/svg" xml:space="preserve" width="5.3145mm" height="5.0887mm" version="1.1" style="shape-rendering:geometricPrecision; text-rendering:geometricPrecision; image-rendering:optimizeQuality; fill-rule:evenodd; clip-rule:evenodd"
viewBox="0 0 44.41 42.52"
 xmlns:xlink="http://www.w3.org/1999/xlink"
 xmlns:xodm="http://www.corel.com/coreldraw/odm/2003">
 <defs>
  <style type="text/css">
   <![CDATA[
    .fil0 {fill:white}
   ]]>
  </style>
 </defs>
 <g id="Layer_x0020_1">
  <metadata id="CorelCorpID_0Corel-Layer"/>
  <g id="_2527120090832">
   <path class="fil0" d="M7.42 0.09c-0.59,0.21 -0.71,0.49 -0.74,1.81l-0.04 1.16 -1.59 0c-1.34,0 -1.67,0.03 -2.17,0.2 -1.25,0.4 -2.28,1.43 -2.68,2.64l-0.21 0.63 0 13.4 0 0.59c0,12.29 0.01,12.85 0.18,13.38 0.47,1.51 1.61,2.54 3.19,2.88 0.52,0.1 2.77,0.13 13.31,0.13l12.68 0 0 -1.31 -12.85 0c-12.68,0 -12.85,0 -13.36,-0.19 -0.68,-0.25 -1.3,-0.83 -1.62,-1.48l-0.26 -0.53 -0.03 -10.35 -0.02 -10.34 35.64 0 0 14.69 0.61 -0.01 0.61 0 -0.02 -10.6 -0.03 -10.6 -0.21 -0.52c-0.43,-1.04 -1.34,-1.95 -2.37,-2.36 -0.46,-0.19 -0.74,-0.22 -2.58,-0.26l-2.06 -0.05 -0.05 -1.2 -0.05 -1.21 -0.31 -0.27c-0.23,-0.21 -0.39,-0.27 -0.72,-0.27 -0.33,0 -0.49,0.06 -0.72,0.27l-0.31 0.27 -0.05 1.21 -0.05 1.2 -4.33 0.03 -4.32 0.02 -0.04 -1.16c-0.04,-1.35 -0.15,-1.61 -0.8,-1.82 -0.33,-0.1 -0.43,-0.1 -0.72,0.02 -0.58,0.24 -0.71,0.59 -0.71,1.86l0 1.11 -8.72 0 0 -1.11c0,-1.17 -0.08,-1.43 -0.47,-1.72 -0.33,-0.23 -0.65,-0.28 -1.02,-0.15zm-0.37 8.47c0.54,0.5 1.31,0.42 1.67,-0.17 0.16,-0.27 0.19,-0.48 0.19,-1.6l0 -1.29 0.26 0.14c1.36,0.71 1.57,3.01 0.37,4.04 -0.99,0.85 -2.67,0.81 -3.57,-0.1 -1.05,-1.07 -0.89,-3.03 0.32,-3.85l0.33 -0.22 0.05 1.37 0.05 1.37 0.35 0.32zm10.75 -0.18c0.26,0.46 1.02,0.64 1.51,0.35 0.47,-0.27 0.53,-0.46 0.57,-1.9l0.05 -1.35 0.41 0.32c1.12,0.85 1.27,2.72 0.3,3.71 -0.48,0.5 -0.97,0.71 -1.72,0.76 -1.54,0.09 -2.59,-0.8 -2.68,-2.29 -0.07,-1.04 0.3,-1.85 1.06,-2.3l0.28 -0.18 0.05 1.34c0.03,0.83 0.09,1.41 0.17,1.54zm10.8 -1.52c0,1.35 0,1.36 0.26,1.65 0.22,0.24 0.36,0.31 0.75,0.35 0.46,0.04 0.51,0.02 0.82,-0.29l0.33 -0.33 0 -1.37c0,-0.87 0.04,-1.37 0.09,-1.37 0.18,0 0.95,0.79 1.14,1.15 0.43,0.86 0.27,2.09 -0.38,2.8 -1.01,1.13 -2.92,1.12 -3.89,-0.03 -0.35,-0.39 -0.63,-1.14 -0.63,-1.62 0,-0.68 0.28,-1.3 0.81,-1.82 0.27,-0.26 0.54,-0.49 0.6,-0.49 0.06,0 0.09,0.5 0.09,1.36z"/>
   <path class="fil0" d="M14.51 15.1c-1.86,0.69 -2.43,2.92 -1.14,4.45 0.13,0.16 0.5,0.42 0.82,0.57 1.81,0.91 3.91,-0.35 3.92,-2.34 0,-1.14 -0.5,-2.02 -1.44,-2.49 -0.58,-0.3 -1.59,-0.39 -2.15,-0.18z"/>
   <path class="fil0" d="M21.61 15.19c-1.11,0.53 -1.63,1.33 -1.63,2.5 0.01,1.09 0.46,1.88 1.38,2.42 0.51,0.29 1.49,0.39 2.12,0.22 0.6,-0.16 1.27,-0.71 1.6,-1.31 0.26,-0.47 0.29,-0.59 0.29,-1.31 0,-0.9 -0.17,-1.34 -0.75,-1.92 -0.52,-0.52 -1.02,-0.73 -1.83,-0.77 -0.6,-0.03 -0.78,0 -1.18,0.19z"/>
   <path class="fil0" d="M29 15.15c-0.6,0.21 -1.16,0.72 -1.5,1.37 -0.34,0.65 -0.35,1.67 -0.03,2.34 0.3,0.6 0.77,1.06 1.4,1.35 0.44,0.2 0.6,0.23 1.23,0.19 1.55,-0.09 2.57,-1.15 2.58,-2.65 0,-1.96 -1.81,-3.24 -3.68,-2.59z"/>
   <path class="fil0" d="M7.16 21.69c-0.22,0.08 -0.61,0.33 -0.85,0.55 -1.42,1.28 -1.12,3.56 0.59,4.48 0.55,0.3 1.89,0.29 2.46,-0.01 0.53,-0.28 0.98,-0.75 1.26,-1.29 0.3,-0.61 0.31,-1.66 0.02,-2.3 -0.23,-0.52 -0.74,-1.04 -1.28,-1.32 -0.52,-0.26 -1.63,-0.32 -2.2,-0.11z"/>
   <path class="fil0" d="M14.28 21.76c-1.69,0.79 -2.14,2.91 -0.92,4.35 0.13,0.16 0.5,0.42 0.82,0.57 1,0.51 2.19,0.36 3.02,-0.38 1.24,-1.09 1.24,-3.02 0,-4.11 -0.79,-0.69 -1.98,-0.87 -2.92,-0.44z"/>
   <path class="fil0" d="M21.7 21.69c-0.52,0.19 -1.11,0.7 -1.42,1.23 -0.2,0.35 -0.26,0.58 -0.29,1.2 -0.04,0.68 -0.01,0.82 0.21,1.29 0.67,1.4 2.31,1.97 3.7,1.28 0.61,-0.3 0.93,-0.62 1.27,-1.25 0.29,-0.55 0.29,-1.81 0,-2.36 -0.53,-0.99 -1.27,-1.46 -2.37,-1.51 -0.46,-0.02 -0.83,0.03 -1.09,0.12z"/>
   <path class="fil0" d="M29.05 21.67c-0.95,0.35 -1.72,1.34 -1.82,2.35 -0.08,0.75 0.16,1.44 0.72,2.04 0.65,0.71 1.22,0.95 2.16,0.89 0.84,-0.06 1.3,-0.26 1.86,-0.85 0.52,-0.58 0.7,-1.01 0.71,-1.8 0.01,-1.06 -0.48,-1.89 -1.43,-2.47 -0.51,-0.29 -1.62,-0.38 -2.2,-0.17z"/>
   <path class="fil0" d="M7.32 28.19c-1.54,0.51 -2.33,2.26 -1.69,3.74 0.76,1.74 3.1,2.16 4.46,0.8 0.52,-0.52 0.74,-1.07 0.74,-1.9 -0.01,-1.1 -0.53,-1.96 -1.48,-2.46 -0.42,-0.22 -1.6,-0.32 -2.04,-0.18z"/>
   <path class="fil0" d="M14.18 28.39c-0.93,0.46 -1.43,1.21 -1.49,2.24 -0.11,1.53 0.98,2.78 2.51,2.89 1.11,0.08 2.03,-0.41 2.59,-1.36 0.21,-0.35 0.26,-0.58 0.29,-1.21 0.04,-0.7 0.02,-0.83 -0.21,-1.29 -0.69,-1.4 -2.32,-1.96 -3.7,-1.27z"/>
   <path class="fil0" d="M21.7 28.25c-0.51,0.18 -1.11,0.7 -1.42,1.23 -0.21,0.35 -0.26,0.58 -0.29,1.21 -0.04,0.7 -0.02,0.83 0.21,1.29 0.68,1.4 2.32,1.96 3.7,1.27 0.61,-0.3 0.93,-0.62 1.27,-1.25 0.16,-0.31 0.21,-0.54 0.21,-1.18 0,-0.72 -0.03,-0.84 -0.29,-1.31 -0.32,-0.57 -0.98,-1.14 -1.54,-1.3 -0.48,-0.14 -1.37,-0.12 -1.84,0.05z"/>
   <path class="fil0" d="M28.83 28.32c-1.04,0.5 -1.58,1.36 -1.58,2.5 0.01,0.85 0.17,1.26 0.76,1.89 0.42,0.45 1.39,0.94 1.53,0.77 0.04,-0.04 0.14,-0.29 0.23,-0.54 0.43,-1.2 0.98,-2.09 1.89,-3.04l0.59 -0.64 -0.39 -0.37c-0.58,-0.56 -0.94,-0.71 -1.8,-0.75 -0.65,-0.04 -0.82,-0.01 -1.23,0.19z"/>
   <path class="fil0" d="M35.88 28.95c-2.36,0.62 -4.12,2.26 -4.89,4.55 -0.33,0.98 -0.41,2.56 -0.19,3.6 0.19,0.89 0.85,2.24 1.45,2.96 1.82,2.2 4.88,3.03 7.63,2.06 0.99,-0.34 1.63,-0.77 2.55,-1.69 0.69,-0.68 0.93,-0.99 1.25,-1.64 0.58,-1.18 0.72,-1.81 0.72,-3.19 0,-0.96 -0.05,-1.3 -0.22,-1.88 -0.75,-2.43 -2.56,-4.17 -4.95,-4.78 -0.94,-0.24 -2.44,-0.24 -3.36,0zm2.8 1.17c2.65,0.56 4.47,2.81 4.47,5.53 0.01,1.54 -0.52,2.81 -1.65,3.95 -1.1,1.11 -2.37,1.63 -3.96,1.63 -1.5,0 -2.72,-0.48 -3.82,-1.51 -0.76,-0.71 -1.18,-1.36 -1.53,-2.35 -0.32,-0.87 -0.36,-2.34 -0.09,-3.21 0.88,-2.94 3.68,-4.65 6.57,-4.04z"/>
   <path class="fil0" d="M37.28 31.12c-0.1,0.06 -0.22,0.15 -0.25,0.21 -0.04,0.06 -0.08,1.13 -0.08,2.37 0,2.24 0,2.27 0.21,2.41 0.18,0.12 0.57,0.15 2.38,0.15l2.19 0 0.19 -0.24c0.23,-0.3 0.24,-0.49 0.05,-0.77 -0.14,-0.2 -0.2,-0.21 -1.75,-0.21 -0.89,0 -1.71,-0.03 -1.82,-0.06 -0.22,-0.06 -0.22,-0.07 -0.22,-1.82l0 -1.77 -0.24 -0.19c-0.28,-0.22 -0.38,-0.23 -0.65,-0.08z"/>
  </g>
 </g>
</svg>
