<?xml version="1.0" encoding="UTF-8"?>
<!DOCTYPE svg PUBLIC "-//W3C//DTD SVG 1.1//EN" "http://www.w3.org/Graphics/SVG/1.1/DTD/svg11.dtd">
<!-- Creator: CorelDRAW 2021.5 -->
<svg xmlns="http://www.w3.org/2000/svg" xml:space="preserve" width="4.6812mm" height="5.6438mm" version="1.1" style="shape-rendering:geometricPrecision; text-rendering:geometricPrecision; image-rendering:optimizeQuality; fill-rule:evenodd; clip-rule:evenodd"
viewBox="0 0 471.38 568.31"
 xmlns:xlink="http://www.w3.org/1999/xlink"
 xmlns:xodm="http://www.corel.com/coreldraw/odm/2003">
 <defs>
  <style type="text/css">
   <![CDATA[
    .fil0 {fill:white}
   ]]>
  </style>
 </defs>
 <g id="Layer_x0020_1">
  <metadata id="CorelCorpID_0Corel-Layer"/>
  <g id="_2527120066976">
   <polygon class="fil0" points="226.62,24.18 226.62,48.34 244.75,48.34 244.75,0 226.62,0 "/>
   <path class="fil0" d="M89.14 48.34c-5.45,6.04 -5.45,6.65 10.57,22.67 15.42,15.42 16.61,16.31 21.75,11.48 3.02,-2.73 5.45,-6.34 5.45,-8.15 0,-3.65 -27.51,-32.04 -30.53,-32.04 -0.9,0 -4.22,2.72 -7.24,6.04z"/>
   <path class="fil0" d="M353.54 58.92l-16.31 16.63 6.65 6.65 6.65 6.95 17.22 -17.22c16.93,-16.93 17.22,-17.22 11.48,-23.57 -3.02,-3.32 -6.34,-6.04 -7.24,-6.04 -1.22,0 -9.37,7.55 -18.44,16.61z"/>
   <path class="fil0" d="M156.52 97c-4.84,2.72 -5.45,9.67 -5.45,75.24l0 72.52 -32.03 0c-17.52,0 -34.45,1.51 -37.77,3.02 -5.43,3.02 -5.74,7.24 -5.74,75.54l0 72.52 -32.03 0c-17.52,0 -34.45,1.51 -37.77,3.02 -5.43,3.02 -5.74,7.24 -5.74,82.49 0,57.71 0.91,80.38 3.63,83.1 5.14,5.14 459.01,5.14 464.14,0 2.72,-2.72 3.63,-25.39 3.63,-83.1 0,-75.25 -0.31,-79.47 -5.74,-82.49 -3.32,-1.51 -20.25,-3.02 -37.77,-3.02l-32.03 0 0 -72.52c0,-68.3 -0.31,-72.52 -5.74,-75.54 -3.32,-1.51 -20.25,-3.02 -37.77,-3.02l-32.03 0 0 -72.52c0,-68.3 -0.31,-72.52 -5.74,-75.54 -7.86,-3.94 -151.09,-3.94 -158.03,0.3zm39.88 42.59c0,43.22 4.84,48.66 25.69,29.31l13.6 -12.69 13.59 12.69c20.84,19.34 25.69,13.91 25.69,-29.31l0 -24.77 27.19 0 0 129.94 -132.95 0 0 -129.94 27.19 0 0 24.77zm57.42 -9.06l0 15.42 -6.95 -6.35c-3.94,-3.62 -8.76,-6.64 -11.18,-6.64 -2.43,0 -7.25,3.02 -11.19,6.64l-6.95 6.35 0 -31.13 36.26 0 0 15.71zm-132.96 165.28c0,31.13 3.03,45.64 9.67,45.64 2.11,0 9.67,-5.73 16.63,-12.69l12.99 -12.69 13 12.69c6.96,6.96 14.51,12.69 16.63,12.69 6.64,0 9.67,-14.51 9.67,-45.64l0 -29.91 27.19 0 0 129.94 -132.95 0 0 -129.94 27.19 0 0 29.91zm57.42 -10.26l0 19.95 -9.06 -6.96 -9.07 -6.65 -9.06 6.65 -9.06 6.96 0 -39.59 36.26 0 0 19.65zm93.67 5.14c0,43.21 4.84,48.65 25.69,29.3l13.6 -12.69 13.59 12.69c20.84,19.34 25.69,13.91 25.69,-29.3l0 -24.78 27.19 0 0 129.94 -132.95 0 0 -129.94 27.19 0 0 24.78zm57.42 -9.07l0 15.42 -6.95 -6.34c-3.94,-3.63 -8.76,-6.65 -11.18,-6.65 -2.43,0 -7.25,3.02 -11.18,6.65l-6.96 6.34 0 -31.13 36.26 0 0 15.71zm-284.05 160.16c0,43.21 4.84,48.65 25.69,29.3l13.59 -12.69 13.6 12.69c20.84,19.34 25.69,13.91 25.69,-29.3l0 -24.78 27.19 0 0 129.94 -132.95 0 0 -129.94 27.19 0 0 24.78zm57.42 -9.07l0 15.42 -6.96 -6.34c-3.93,-3.63 -8.75,-6.65 -11.18,-6.65 -2.42,0 -7.24,3.02 -11.18,6.65l-6.95 6.34 0 -31.13 36.26 0 0 15.71zm93.67 9.07c0,43.21 4.84,48.65 25.69,29.3l13.6 -12.69 13.59 12.69c20.84,19.34 25.69,13.91 25.69,-29.3l0 -24.78 27.19 0 0 129.94 -132.95 0 0 -129.94 27.19 0 0 24.78zm57.42 -9.07l0 15.42 -6.95 -6.34c-3.94,-3.63 -8.76,-6.65 -11.18,-6.65 -2.43,0 -7.25,3.02 -11.19,6.65l-6.95 6.34 0 -31.13 36.26 0 0 15.71zm93.68 9.07c0,43.21 4.83,48.65 25.68,29.3l13.6 -12.69 13.59 12.69c20.84,19.34 25.69,13.91 25.69,-29.3l0 -24.78 27.19 0 0 129.94 -132.95 0 0 -129.94 27.2 0 0 24.78zm57.41 -9.07l0 15.42 -6.95 -6.34c-3.94,-3.63 -8.76,-6.65 -11.18,-6.65 -2.43,0 -7.25,3.02 -11.18,6.65l-6.96 6.34 0 -31.13 36.26 0 0 15.71z"/>
   <polygon class="fil0" points="66.47,170.73 66.47,181.3 111.79,181.3 111.79,160.15 66.47,160.15 "/>
   <polygon class="fil0" points="359.58,170.73 359.58,181.3 404.9,181.3 404.9,160.15 359.58,160.15 "/>
  </g>
 </g>
</svg>
