<?xml version="1.0" encoding="UTF-8"?>
<!DOCTYPE svg PUBLIC "-//W3C//DTD SVG 1.1//EN" "http://www.w3.org/Graphics/SVG/1.1/DTD/svg11.dtd">
<!-- Creator: CorelDRAW 2021.5 -->
<svg xmlns="http://www.w3.org/2000/svg" xml:space="preserve" width="4.451mm" height="4.4846mm" version="1.1" style="shape-rendering:geometricPrecision; text-rendering:geometricPrecision; image-rendering:optimizeQuality; fill-rule:evenodd; clip-rule:evenodd"
viewBox="0 0 29.2 29.42"
 xmlns:xlink="http://www.w3.org/1999/xlink"
 xmlns:xodm="http://www.corel.com/coreldraw/odm/2003">
 <defs>
  <style type="text/css">
   <![CDATA[
    .fil0 {fill:white}
   ]]>
  </style>
 </defs>
 <g id="Layer_x0020_1">
  <metadata id="CorelCorpID_0Corel-Layer"/>
  <g id="_2526626958368">
   <path class="fil0" d="M13.6 0.04c-1.87,0.19 -3.44,0.64 -5.07,1.44 -1.5,0.74 -2.72,1.63 -3.93,2.87 -2.15,2.21 -3.47,4.89 -3.93,7.99 -0.11,0.78 -0.16,2.43 -0.08,3.22 0.19,1.99 0.65,3.58 1.55,5.34l0.45 0.87 -1.29 3.83 -1.29 3.83 0.66 -0.21c0.37,-0.11 2.15,-0.69 3.97,-1.27l3.29 -1.06 0.77 0.37c3.17,1.52 6.77,1.82 10.17,0.84 2.35,-0.67 4.36,-1.88 6.14,-3.65 2.28,-2.29 3.64,-5.04 4.1,-8.27 0.13,-0.93 0.13,-2.77 0,-3.71 -0.45,-3.22 -1.82,-5.99 -4.1,-8.27 -2.23,-2.22 -4.94,-3.6 -8.03,-4.06 -0.58,-0.09 -1.55,-0.14 -2.35,-0.14l-0.08 0c-0.37,0 -0.7,0.01 -0.94,0.04zm3.05 2.48c1.92,0.3 3.78,1.07 5.35,2.24 2.14,1.58 3.75,3.96 4.41,6.53 0.31,1.18 0.38,1.78 0.38,3.04 0,1.93 -0.33,3.43 -1.13,5.1 -1.21,2.51 -3.07,4.4 -5.56,5.62 -3.56,1.75 -7.71,1.61 -11.15,-0.37l-0.67 -0.38 -2.24 0.72c-1.23,0.39 -2.26,0.7 -2.27,0.69 -0.02,-0.02 0.3,-1.01 0.69,-2.2l0.73 -2.17 -0.3 -0.46c-0.91,-1.39 -1.5,-2.9 -1.8,-4.56 -0.11,-0.61 -0.12,-0.88 -0.12,-2.01 0.01,-1.45 0.08,-2.04 0.41,-3.21 1.33,-4.7 5.39,-8.11 10.31,-8.65 0.63,-0.07 2.3,-0.03 2.97,0.08z"/>
   <path class="fil0" d="M9.75 7.37c-0.32,0.08 -0.5,0.22 -0.97,0.71 -0.69,0.74 -1.05,1.69 -1.05,2.78 0,1.28 0.4,2.31 1.6,4.12 0.84,1.28 1.38,1.94 2.33,2.89 1.53,1.53 2.71,2.25 5.16,3.16 1.24,0.46 1.74,0.54 2.61,0.4 0.77,-0.13 1.77,-0.65 2.25,-1.17 0.36,-0.4 0.63,-1.19 0.63,-1.85 0,-0.3 -0.02,-0.38 -0.12,-0.47 -0.15,-0.14 -2.62,-1.46 -3.06,-1.64 -0.47,-0.19 -0.55,-0.15 -1.09,0.5 -0.79,0.94 -1.09,1.24 -1.29,1.24 -0.23,0 -1.29,-0.52 -1.97,-0.98 -1.1,-0.74 -1.91,-1.55 -2.71,-2.76 -0.56,-0.84 -0.69,-1.11 -0.64,-1.31 0.02,-0.08 0.25,-0.37 0.5,-0.63 0.5,-0.52 0.79,-0.97 0.79,-1.21 0,-0.2 -1.11,-3.22 -1.28,-3.49 -0.08,-0.12 -0.2,-0.22 -0.31,-0.25 -0.28,-0.09 -1.08,-0.11 -1.36,-0.04z"/>
  </g>
 </g>
</svg>
